<?xml version="1.0" encoding="UTF-8"?>
<svg xmlns="http://www.w3.org/2000/svg" xmlns:xlink="http://www.w3.org/1999/xlink" width="256pt" height="256pt" viewBox="0 0 256 256" version="1.1">
<defs>
<clipPath id="clip1">
  <path d="M 7 123 L 246 123 L 246 251 L 7 251 Z M 7 123 "/>
</clipPath>
<clipPath id="clip2">
  <path d="M 168.421875 137.878906 C 166.097656 136.027344 163.328125 135.15625 160.121094 135.257812 C 156.910156 135.351562 154.21875 136.410156 152.046875 138.429688 C 151.429688 138.941406 150.917969 139.5 150.511719 140.105469 C 146.527344 138.277344 142.109375 137.453125 137.253906 137.621094 C 132.105469 137.78125 127.554688 139.019531 123.601562 141.34375 C 119.054688 138.652344 113.855469 137.40625 107.992188 137.601562 C 101.449219 137.828125 95.859375 139.789062 91.222656 143.492188 L 91.199219 143.472656 C 85.941406 139.386719 79.722656 137.457031 72.542969 137.683594 C 70.230469 137.761719 68.03125 138.0625 65.9375 138.585938 C 64.648438 134.992188 62.246094 131.8125 58.726562 129.054688 C 57.5 128.097656 56.222656 127.257812 54.886719 126.535156 C 50.53125 124.160156 45.605469 123.070312 40.117188 123.265625 C 32.9375 123.503906 26.914062 125.832031 22.042969 130.257812 C 22.011719 130.285156 21.980469 130.316406 21.949219 130.355469 C 21.6875 130.121094 21.421875 129.882812 21.160156 129.648438 C 20.664062 129.226562 20.160156 128.832031 19.648438 128.464844 C 15.011719 125.078125 9.535156 123.386719 3.226562 123.386719 C 1.890625 123.386719 0.589844 123.464844 -0.683594 123.621094 L -0.683594 250.066406 L 259.816406 250.066406 L 259.839844 123.523438 C 254.304688 124.335938 249.550781 126.5625 245.582031 130.199219 C 243.84375 131.789062 242.433594 133.488281 241.347656 135.300781 C 237.871094 134.011719 234.074219 133.433594 229.949219 133.566406 C 225.28125 133.722656 221.109375 134.765625 217.433594 136.695312 C 216.90625 136.199219 216.347656 135.71875 215.757812 135.257812 C 209.433594 130.308594 201.964844 127.972656 193.359375 128.25 C 184.769531 128.539062 177.550781 131.355469 171.703125 136.695312 C 170.945312 137.40625 170.222656 138.121094 169.539062 138.84375 C 169.199219 138.515625 168.828125 138.195312 168.421875 137.878906 Z M 168.421875 137.878906 "/>
</clipPath>
<clipPath id="clip3">
  <path d="M 9 139 L 248 139 L 248 255 L 9 255 Z M 9 139 "/>
</clipPath>
<clipPath id="clip4">
  <path d="M 247.691406 135.628906 C 247.691406 69.71875 194.355469 16.285156 128.5625 16.285156 C 62.773438 16.285156 9.4375 69.71875 9.4375 135.628906 C 9.4375 201.542969 62.773438 254.976562 128.5625 254.976562 C 194.355469 254.976562 247.691406 201.542969 247.691406 135.628906 Z M 247.691406 135.628906 "/>
</clipPath>
<clipPath id="clip5">
  <path d="M 54 206 L 107 206 L 107 218 L 54 218 Z M 54 206 "/>
</clipPath>
<clipPath id="clip6">
  <path d="M 248.839844 129.3125 C 248.839844 63.398438 195.503906 9.964844 129.714844 9.964844 C 63.921875 9.964844 10.585938 63.398438 10.585938 129.3125 C 10.585938 195.226562 63.921875 248.65625 129.714844 248.65625 C 195.503906 248.65625 248.839844 195.226562 248.839844 129.3125 Z M 248.839844 129.3125 "/>
</clipPath>
<clipPath id="clip7">
  <path d="M 54 216 L 107 216 L 107 249 L 54 249 Z M 54 216 "/>
</clipPath>
<clipPath id="clip8">
  <path d="M 248.839844 129.3125 C 248.839844 63.398438 195.503906 9.964844 129.714844 9.964844 C 63.921875 9.964844 10.585938 63.398438 10.585938 129.3125 C 10.585938 195.226562 63.921875 248.65625 129.714844 248.65625 C 195.503906 248.65625 248.839844 195.226562 248.839844 129.3125 Z M 248.839844 129.3125 "/>
</clipPath>
<clipPath id="clip9">
  <path d="M 54 209 L 107 209 L 107 248 L 54 248 Z M 54 209 "/>
</clipPath>
<clipPath id="clip10">
  <path d="M 248.839844 129.3125 C 248.839844 63.398438 195.503906 9.964844 129.714844 9.964844 C 63.921875 9.964844 10.585938 63.398438 10.585938 129.3125 C 10.585938 195.226562 63.921875 248.65625 129.714844 248.65625 C 195.503906 248.65625 248.839844 195.226562 248.839844 129.3125 Z M 248.839844 129.3125 "/>
</clipPath>
<clipPath id="clip11">
  <path d="M 54 222 L 107 222 L 107 243 L 54 243 Z M 54 222 "/>
</clipPath>
<clipPath id="clip12">
  <path d="M 248.839844 129.3125 C 248.839844 63.398438 195.503906 9.964844 129.714844 9.964844 C 63.921875 9.964844 10.585938 63.398438 10.585938 129.3125 C 10.585938 195.226562 63.921875 248.65625 129.714844 248.65625 C 195.503906 248.65625 248.839844 195.226562 248.839844 129.3125 Z M 248.839844 129.3125 "/>
</clipPath>
<clipPath id="clip13">
  <path d="M 54 196 L 107 196 L 107 199 L 54 199 Z M 54 196 "/>
</clipPath>
<clipPath id="clip14">
  <path d="M 248.839844 129.3125 C 248.839844 63.398438 195.503906 9.964844 129.714844 9.964844 C 63.921875 9.964844 10.585938 63.398438 10.585938 129.3125 C 10.585938 195.226562 63.921875 248.65625 129.714844 248.65625 C 195.503906 248.65625 248.839844 195.226562 248.839844 129.3125 Z M 248.839844 129.3125 "/>
</clipPath>
<clipPath id="clip15">
  <path d="M 54 198 L 107 198 L 107 210 L 54 210 Z M 54 198 "/>
</clipPath>
<clipPath id="clip16">
  <path d="M 248.839844 129.3125 C 248.839844 63.398438 195.503906 9.964844 129.714844 9.964844 C 63.921875 9.964844 10.585938 63.398438 10.585938 129.3125 C 10.585938 195.226562 63.921875 248.65625 129.714844 248.65625 C 195.503906 248.65625 248.839844 195.226562 248.839844 129.3125 Z M 248.839844 129.3125 "/>
</clipPath>
<clipPath id="clip17">
  <path d="M 54 204 L 107 204 L 107 214 L 54 214 Z M 54 204 "/>
</clipPath>
<clipPath id="clip18">
  <path d="M 248.839844 129.3125 C 248.839844 63.398438 195.503906 9.964844 129.714844 9.964844 C 63.921875 9.964844 10.585938 63.398438 10.585938 129.3125 C 10.585938 195.226562 63.921875 248.65625 129.714844 248.65625 C 195.503906 248.65625 248.839844 195.226562 248.839844 129.3125 Z M 248.839844 129.3125 "/>
</clipPath>
<clipPath id="clip19">
  <path d="M 10 206 L 55 206 L 55 218 L 10 218 Z M 10 206 "/>
</clipPath>
<clipPath id="clip20">
  <path d="M 248.839844 129.3125 C 248.839844 63.398438 195.503906 9.964844 129.714844 9.964844 C 63.921875 9.964844 10.585938 63.398438 10.585938 129.3125 C 10.585938 195.226562 63.921875 248.65625 129.714844 248.65625 C 195.503906 248.65625 248.839844 195.226562 248.839844 129.3125 Z M 248.839844 129.3125 "/>
</clipPath>
<clipPath id="clip21">
  <path d="M 10 216 L 55 216 L 55 249 L 10 249 Z M 10 216 "/>
</clipPath>
<clipPath id="clip22">
  <path d="M 248.839844 129.3125 C 248.839844 63.398438 195.503906 9.964844 129.714844 9.964844 C 63.921875 9.964844 10.585938 63.398438 10.585938 129.3125 C 10.585938 195.226562 63.921875 248.65625 129.714844 248.65625 C 195.503906 248.65625 248.839844 195.226562 248.839844 129.3125 Z M 248.839844 129.3125 "/>
</clipPath>
<clipPath id="clip23">
  <path d="M 10 209 L 55 209 L 55 248 L 10 248 Z M 10 209 "/>
</clipPath>
<clipPath id="clip24">
  <path d="M 248.839844 129.3125 C 248.839844 63.398438 195.503906 9.964844 129.714844 9.964844 C 63.921875 9.964844 10.585938 63.398438 10.585938 129.3125 C 10.585938 195.226562 63.921875 248.65625 129.714844 248.65625 C 195.503906 248.65625 248.839844 195.226562 248.839844 129.3125 Z M 248.839844 129.3125 "/>
</clipPath>
<clipPath id="clip25">
  <path d="M 10 222 L 55 222 L 55 243 L 10 243 Z M 10 222 "/>
</clipPath>
<clipPath id="clip26">
  <path d="M 248.839844 129.3125 C 248.839844 63.398438 195.503906 9.964844 129.714844 9.964844 C 63.921875 9.964844 10.585938 63.398438 10.585938 129.3125 C 10.585938 195.226562 63.921875 248.65625 129.714844 248.65625 C 195.503906 248.65625 248.839844 195.226562 248.839844 129.3125 Z M 248.839844 129.3125 "/>
</clipPath>
<clipPath id="clip27">
  <path d="M 10 196 L 55 196 L 55 199 L 10 199 Z M 10 196 "/>
</clipPath>
<clipPath id="clip28">
  <path d="M 248.839844 129.3125 C 248.839844 63.398438 195.503906 9.964844 129.714844 9.964844 C 63.921875 9.964844 10.585938 63.398438 10.585938 129.3125 C 10.585938 195.226562 63.921875 248.65625 129.714844 248.65625 C 195.503906 248.65625 248.839844 195.226562 248.839844 129.3125 Z M 248.839844 129.3125 "/>
</clipPath>
<clipPath id="clip29">
  <path d="M 10 198 L 55 198 L 55 210 L 10 210 Z M 10 198 "/>
</clipPath>
<clipPath id="clip30">
  <path d="M 248.839844 129.3125 C 248.839844 63.398438 195.503906 9.964844 129.714844 9.964844 C 63.921875 9.964844 10.585938 63.398438 10.585938 129.3125 C 10.585938 195.226562 63.921875 248.65625 129.714844 248.65625 C 195.503906 248.65625 248.839844 195.226562 248.839844 129.3125 Z M 248.839844 129.3125 "/>
</clipPath>
<clipPath id="clip31">
  <path d="M 10 204 L 55 204 L 55 214 L 10 214 Z M 10 204 "/>
</clipPath>
<clipPath id="clip32">
  <path d="M 248.839844 129.3125 C 248.839844 63.398438 195.503906 9.964844 129.714844 9.964844 C 63.921875 9.964844 10.585938 63.398438 10.585938 129.3125 C 10.585938 195.226562 63.921875 248.65625 129.714844 248.65625 C 195.503906 248.65625 248.839844 195.226562 248.839844 129.3125 Z M 248.839844 129.3125 "/>
</clipPath>
<clipPath id="clip33">
  <path d="M 106 207 L 159 207 L 159 219 L 106 219 Z M 106 207 "/>
</clipPath>
<clipPath id="clip34">
  <path d="M 248.839844 129.3125 C 248.839844 63.398438 195.503906 9.964844 129.714844 9.964844 C 63.921875 9.964844 10.585938 63.398438 10.585938 129.3125 C 10.585938 195.226562 63.921875 248.65625 129.714844 248.65625 C 195.503906 248.65625 248.839844 195.226562 248.839844 129.3125 Z M 248.839844 129.3125 "/>
</clipPath>
<clipPath id="clip35">
  <path d="M 106 217 L 159 217 L 159 249 L 106 249 Z M 106 217 "/>
</clipPath>
<clipPath id="clip36">
  <path d="M 248.839844 129.3125 C 248.839844 63.398438 195.503906 9.964844 129.714844 9.964844 C 63.921875 9.964844 10.585938 63.398438 10.585938 129.3125 C 10.585938 195.226562 63.921875 248.65625 129.714844 248.65625 C 195.503906 248.65625 248.839844 195.226562 248.839844 129.3125 Z M 248.839844 129.3125 "/>
</clipPath>
<clipPath id="clip37">
  <path d="M 106 209 L 159 209 L 159 249 L 106 249 Z M 106 209 "/>
</clipPath>
<clipPath id="clip38">
  <path d="M 248.839844 129.3125 C 248.839844 63.398438 195.503906 9.964844 129.714844 9.964844 C 63.921875 9.964844 10.585938 63.398438 10.585938 129.3125 C 10.585938 195.226562 63.921875 248.65625 129.714844 248.65625 C 195.503906 248.65625 248.839844 195.226562 248.839844 129.3125 Z M 248.839844 129.3125 "/>
</clipPath>
<clipPath id="clip39">
  <path d="M 106 223 L 159 223 L 159 244 L 106 244 Z M 106 223 "/>
</clipPath>
<clipPath id="clip40">
  <path d="M 248.839844 129.3125 C 248.839844 63.398438 195.503906 9.964844 129.714844 9.964844 C 63.921875 9.964844 10.585938 63.398438 10.585938 129.3125 C 10.585938 195.226562 63.921875 248.65625 129.714844 248.65625 C 195.503906 248.65625 248.839844 195.226562 248.839844 129.3125 Z M 248.839844 129.3125 "/>
</clipPath>
<clipPath id="clip41">
  <path d="M 106 197 L 159 197 L 159 199 L 106 199 Z M 106 197 "/>
</clipPath>
<clipPath id="clip42">
  <path d="M 248.839844 129.3125 C 248.839844 63.398438 195.503906 9.964844 129.714844 9.964844 C 63.921875 9.964844 10.585938 63.398438 10.585938 129.3125 C 10.585938 195.226562 63.921875 248.65625 129.714844 248.65625 C 195.503906 248.65625 248.839844 195.226562 248.839844 129.3125 Z M 248.839844 129.3125 "/>
</clipPath>
<clipPath id="clip43">
  <path d="M 106 198 L 159 198 L 159 211 L 106 211 Z M 106 198 "/>
</clipPath>
<clipPath id="clip44">
  <path d="M 248.839844 129.3125 C 248.839844 63.398438 195.503906 9.964844 129.714844 9.964844 C 63.921875 9.964844 10.585938 63.398438 10.585938 129.3125 C 10.585938 195.226562 63.921875 248.65625 129.714844 248.65625 C 195.503906 248.65625 248.839844 195.226562 248.839844 129.3125 Z M 248.839844 129.3125 "/>
</clipPath>
<clipPath id="clip45">
  <path d="M 106 205 L 159 205 L 159 214 L 106 214 Z M 106 205 "/>
</clipPath>
<clipPath id="clip46">
  <path d="M 248.839844 129.3125 C 248.839844 63.398438 195.503906 9.964844 129.714844 9.964844 C 63.921875 9.964844 10.585938 63.398438 10.585938 129.3125 C 10.585938 195.226562 63.921875 248.65625 129.714844 248.65625 C 195.503906 248.65625 248.839844 195.226562 248.839844 129.3125 Z M 248.839844 129.3125 "/>
</clipPath>
<clipPath id="clip47">
  <path d="M 158 206 L 211 206 L 211 218 L 158 218 Z M 158 206 "/>
</clipPath>
<clipPath id="clip48">
  <path d="M 248.839844 129.3125 C 248.839844 63.398438 195.503906 9.964844 129.714844 9.964844 C 63.921875 9.964844 10.585938 63.398438 10.585938 129.3125 C 10.585938 195.226562 63.921875 248.65625 129.714844 248.65625 C 195.503906 248.65625 248.839844 195.226562 248.839844 129.3125 Z M 248.839844 129.3125 "/>
</clipPath>
<clipPath id="clip49">
  <path d="M 158 216 L 211 216 L 211 249 L 158 249 Z M 158 216 "/>
</clipPath>
<clipPath id="clip50">
  <path d="M 248.839844 129.3125 C 248.839844 63.398438 195.503906 9.964844 129.714844 9.964844 C 63.921875 9.964844 10.585938 63.398438 10.585938 129.3125 C 10.585938 195.226562 63.921875 248.65625 129.714844 248.65625 C 195.503906 248.65625 248.839844 195.226562 248.839844 129.3125 Z M 248.839844 129.3125 "/>
</clipPath>
<clipPath id="clip51">
  <path d="M 158 209 L 211 209 L 211 248 L 158 248 Z M 158 209 "/>
</clipPath>
<clipPath id="clip52">
  <path d="M 248.839844 129.3125 C 248.839844 63.398438 195.503906 9.964844 129.714844 9.964844 C 63.921875 9.964844 10.585938 63.398438 10.585938 129.3125 C 10.585938 195.226562 63.921875 248.65625 129.714844 248.65625 C 195.503906 248.65625 248.839844 195.226562 248.839844 129.3125 Z M 248.839844 129.3125 "/>
</clipPath>
<clipPath id="clip53">
  <path d="M 158 222 L 211 222 L 211 243 L 158 243 Z M 158 222 "/>
</clipPath>
<clipPath id="clip54">
  <path d="M 248.839844 129.3125 C 248.839844 63.398438 195.503906 9.964844 129.714844 9.964844 C 63.921875 9.964844 10.585938 63.398438 10.585938 129.3125 C 10.585938 195.226562 63.921875 248.65625 129.714844 248.65625 C 195.503906 248.65625 248.839844 195.226562 248.839844 129.3125 Z M 248.839844 129.3125 "/>
</clipPath>
<clipPath id="clip55">
  <path d="M 158 196 L 211 196 L 211 199 L 158 199 Z M 158 196 "/>
</clipPath>
<clipPath id="clip56">
  <path d="M 248.839844 129.3125 C 248.839844 63.398438 195.503906 9.964844 129.714844 9.964844 C 63.921875 9.964844 10.585938 63.398438 10.585938 129.3125 C 10.585938 195.226562 63.921875 248.65625 129.714844 248.65625 C 195.503906 248.65625 248.839844 195.226562 248.839844 129.3125 Z M 248.839844 129.3125 "/>
</clipPath>
<clipPath id="clip57">
  <path d="M 158 198 L 211 198 L 211 210 L 158 210 Z M 158 198 "/>
</clipPath>
<clipPath id="clip58">
  <path d="M 248.839844 129.3125 C 248.839844 63.398438 195.503906 9.964844 129.714844 9.964844 C 63.921875 9.964844 10.585938 63.398438 10.585938 129.3125 C 10.585938 195.226562 63.921875 248.65625 129.714844 248.65625 C 195.503906 248.65625 248.839844 195.226562 248.839844 129.3125 Z M 248.839844 129.3125 "/>
</clipPath>
<clipPath id="clip59">
  <path d="M 158 204 L 211 204 L 211 214 L 158 214 Z M 158 204 "/>
</clipPath>
<clipPath id="clip60">
  <path d="M 248.839844 129.3125 C 248.839844 63.398438 195.503906 9.964844 129.714844 9.964844 C 63.921875 9.964844 10.585938 63.398438 10.585938 129.3125 C 10.585938 195.226562 63.921875 248.65625 129.714844 248.65625 C 195.503906 248.65625 248.839844 195.226562 248.839844 129.3125 Z M 248.839844 129.3125 "/>
</clipPath>
<clipPath id="clip61">
  <path d="M 210 206 L 249 206 L 249 218 L 210 218 Z M 210 206 "/>
</clipPath>
<clipPath id="clip62">
  <path d="M 248.839844 129.3125 C 248.839844 63.398438 195.503906 9.964844 129.714844 9.964844 C 63.921875 9.964844 10.585938 63.398438 10.585938 129.3125 C 10.585938 195.226562 63.921875 248.65625 129.714844 248.65625 C 195.503906 248.65625 248.839844 195.226562 248.839844 129.3125 Z M 248.839844 129.3125 "/>
</clipPath>
<clipPath id="clip63">
  <path d="M 210 216 L 249 216 L 249 249 L 210 249 Z M 210 216 "/>
</clipPath>
<clipPath id="clip64">
  <path d="M 248.839844 129.3125 C 248.839844 63.398438 195.503906 9.964844 129.714844 9.964844 C 63.921875 9.964844 10.585938 63.398438 10.585938 129.3125 C 10.585938 195.226562 63.921875 248.65625 129.714844 248.65625 C 195.503906 248.65625 248.839844 195.226562 248.839844 129.3125 Z M 248.839844 129.3125 "/>
</clipPath>
<clipPath id="clip65">
  <path d="M 210 209 L 249 209 L 249 248 L 210 248 Z M 210 209 "/>
</clipPath>
<clipPath id="clip66">
  <path d="M 248.839844 129.3125 C 248.839844 63.398438 195.503906 9.964844 129.714844 9.964844 C 63.921875 9.964844 10.585938 63.398438 10.585938 129.3125 C 10.585938 195.226562 63.921875 248.65625 129.714844 248.65625 C 195.503906 248.65625 248.839844 195.226562 248.839844 129.3125 Z M 248.839844 129.3125 "/>
</clipPath>
<clipPath id="clip67">
  <path d="M 210 222 L 249 222 L 249 243 L 210 243 Z M 210 222 "/>
</clipPath>
<clipPath id="clip68">
  <path d="M 248.839844 129.3125 C 248.839844 63.398438 195.503906 9.964844 129.714844 9.964844 C 63.921875 9.964844 10.585938 63.398438 10.585938 129.3125 C 10.585938 195.226562 63.921875 248.65625 129.714844 248.65625 C 195.503906 248.65625 248.839844 195.226562 248.839844 129.3125 Z M 248.839844 129.3125 "/>
</clipPath>
<clipPath id="clip69">
  <path d="M 210 196 L 249 196 L 249 199 L 210 199 Z M 210 196 "/>
</clipPath>
<clipPath id="clip70">
  <path d="M 248.839844 129.3125 C 248.839844 63.398438 195.503906 9.964844 129.714844 9.964844 C 63.921875 9.964844 10.585938 63.398438 10.585938 129.3125 C 10.585938 195.226562 63.921875 248.65625 129.714844 248.65625 C 195.503906 248.65625 248.839844 195.226562 248.839844 129.3125 Z M 248.839844 129.3125 "/>
</clipPath>
<clipPath id="clip71">
  <path d="M 210 198 L 249 198 L 249 210 L 210 210 Z M 210 198 "/>
</clipPath>
<clipPath id="clip72">
  <path d="M 248.839844 129.3125 C 248.839844 63.398438 195.503906 9.964844 129.714844 9.964844 C 63.921875 9.964844 10.585938 63.398438 10.585938 129.3125 C 10.585938 195.226562 63.921875 248.65625 129.714844 248.65625 C 195.503906 248.65625 248.839844 195.226562 248.839844 129.3125 Z M 248.839844 129.3125 "/>
</clipPath>
<clipPath id="clip73">
  <path d="M 210 204 L 249 204 L 249 214 L 210 214 Z M 210 204 "/>
</clipPath>
<clipPath id="clip74">
  <path d="M 248.839844 129.3125 C 248.839844 63.398438 195.503906 9.964844 129.714844 9.964844 C 63.921875 9.964844 10.585938 63.398438 10.585938 129.3125 C 10.585938 195.226562 63.921875 248.65625 129.714844 248.65625 C 195.503906 248.65625 248.839844 195.226562 248.839844 129.3125 Z M 248.839844 129.3125 "/>
</clipPath>
<linearGradient id="linear0" gradientUnits="userSpaceOnUse" x1="1168.6" y1="47.287498" x2="1168.6" y2="36.612499" gradientTransform="matrix(0.744481,0,0,0.744481,-676.514432,84.037354)">
<stop offset="0" style="stop-color:rgb(45.098039%,80.392157%,29.411765%);stop-opacity:1;"/>
<stop offset="1" style="stop-color:rgb(32.54902%,63.921569%,18.431373%);stop-opacity:1;"/>
</linearGradient>
<linearGradient id="linear1" gradientUnits="userSpaceOnUse" x1="1088.6" y1="127.2875" x2="1088.6" y2="116.6125" gradientTransform="matrix(0.32407,0,0,0.32407,-297.580049,149.639213)">
<stop offset="0" style="stop-color:rgb(90.980392%,41.568627%,9.019608%);stop-opacity:1;"/>
<stop offset="1" style="stop-color:rgb(77.254902%,35.294118%,7.45098%);stop-opacity:1;"/>
</linearGradient>
<linearGradient id="linear2" gradientUnits="userSpaceOnUse" x1="1168.6" y1="127.2875" x2="1168.6" y2="116.6125" gradientTransform="matrix(0.305791,0,0,0.305791,-154.975253,151.860054)">
<stop offset="0" style="stop-color:rgb(11.764706%,65.490196%,88.235294%);stop-opacity:1;"/>
<stop offset="1" style="stop-color:rgb(9.411765%,55.294118%,74.901961%);stop-opacity:1;"/>
</linearGradient>
</defs>
<g id="surface1">
<path style=" stroke:none;fill-rule:nonzero;fill:rgb(81.568627%,95.686275%,96.862745%);fill-opacity:1;" d="M 248 128.113281 C 248 62.199219 194.664062 8.769531 128.871094 8.769531 C 63.078125 8.769531 9.746094 62.199219 9.746094 128.113281 C 9.746094 194.027344 63.078125 247.460938 128.871094 247.460938 C 194.664062 247.460938 248 194.027344 248 128.113281 Z M 248 128.113281 "/>
<g clip-path="url(#clip1)" clip-rule="nonzero">
<g clip-path="url(#clip2)" clip-rule="nonzero">
<path style=" stroke:none;fill-rule:nonzero;fill:rgb(81.568627%,95.686275%,96.862745%);fill-opacity:1;" d="M 245.710938 136.398438 C 245.710938 70.484375 192.375 17.050781 126.582031 17.050781 C 60.789062 17.050781 7.453125 70.484375 7.453125 136.398438 C 7.453125 202.308594 60.789062 255.742188 126.582031 255.742188 C 192.375 255.742188 245.710938 202.308594 245.710938 136.398438 Z M 245.710938 136.398438 "/>
</g>
</g>
<g clip-path="url(#clip3)" clip-rule="nonzero">
<g clip-path="url(#clip4)" clip-rule="nonzero">
<path style=" stroke:none;fill-rule:nonzero;fill:rgb(90.588235%,99.215686%,100%);fill-opacity:1;" d="M 99.308594 160.246094 C 96.097656 160.066406 93.328125 161.558594 91.003906 164.730469 C 90.601562 165.273438 90.226562 165.824219 89.886719 166.386719 C 89.203125 165.148438 88.484375 163.921875 87.722656 162.707031 C 81.878906 153.550781 74.660156 148.726562 66.066406 148.230469 C 57.460938 147.761719 49.996094 151.765625 43.667969 160.246094 C 43.078125 161.03125 42.519531 161.851562 41.992188 162.707031 C 38.316406 159.402344 34.144531 157.613281 29.476562 157.34375 C 25.351562 157.117188 21.554688 158.109375 18.082031 160.3125 C 16.996094 157.207031 15.582031 154.292969 13.847656 151.574219 C 9.878906 145.339844 5.125 141.527344 -0.410156 140.132812 L -0.386719 258.402344 L 260.109375 258.402344 L 260.109375 140.304688 C 258.839844 140.03125 257.535156 139.898438 256.203125 139.898438 C 249.890625 139.898438 244.417969 142.800781 239.78125 148.601562 C 239.269531 149.234375 238.765625 149.90625 238.269531 150.628906 C 238.003906 151.03125 237.742188 151.4375 237.476562 151.84375 C 237.445312 151.773438 237.414062 151.71875 237.382812 151.675781 C 232.515625 144.09375 226.492188 140.101562 219.308594 139.695312 C 213.820312 139.359375 208.898438 141.226562 204.539062 145.296875 C 203.207031 146.535156 201.925781 147.972656 200.703125 149.617188 C 197.179688 154.339844 194.777344 159.785156 193.492188 165.945312 C 191.398438 165.046875 189.195312 164.53125 186.882812 164.394531 C 179.703125 164.011719 173.488281 167.320312 168.230469 174.316406 L 168.207031 174.347656 C 163.570312 168.003906 157.980469 164.640625 151.433594 164.261719 C 145.574219 163.921875 140.371094 166.058594 135.828125 170.671875 C 131.871094 166.6875 127.320312 164.5625 122.171875 164.292969 C 117.320312 164 112.898438 165.417969 108.914062 168.546875 C 108.511719 167.511719 108 166.554688 107.378906 165.675781 C 105.207031 162.210938 102.519531 160.402344 99.308594 160.246094 Z M 99.308594 160.246094 "/>
</g>
</g>
<g clip-path="url(#clip5)" clip-rule="nonzero">
<g clip-path="url(#clip6)" clip-rule="nonzero">
<path style=" stroke:none;fill-rule:nonzero;fill:rgb(73.333333%,50.196078%,26.666667%);fill-opacity:1;" d="M 54.253906 213.15625 L 54.253906 217.996094 L 62.925781 209.433594 L 71.636719 217.996094 L 80.347656 209.433594 L 88.980469 217.996094 L 97.691406 209.433594 L 106.367188 217.996094 L 106.367188 213.15625 L 97.691406 206.640625 L 88.980469 213.15625 L 80.347656 206.640625 L 71.636719 213.15625 L 62.925781 206.640625 Z M 54.253906 213.15625 "/>
</g>
</g>
<g clip-path="url(#clip7)" clip-rule="nonzero">
<g clip-path="url(#clip8)" clip-rule="nonzero">
<path style=" stroke:none;fill-rule:nonzero;fill:rgb(78.823529%,59.607843%,41.176471%);fill-opacity:1;" d="M 54.253906 247.921875 L 54.253906 248.890625 L 106.367188 248.890625 L 106.367188 247.847656 L 105.0625 246.546875 C 105.085938 246.546875 105.101562 246.535156 105.101562 246.507812 L 97.730469 239.210938 L 89.019531 247.773438 L 80.382812 239.210938 L 71.671875 247.773438 L 62.960938 239.210938 L 55.554688 246.546875 C 55.554688 246.570312 55.566406 246.582031 55.59375 246.582031 L 54.253906 247.921875 M 54.253906 231.394531 L 54.289062 231.394531 C 56.796875 228.890625 59.316406 226.394531 61.847656 223.914062 L 62.925781 222.832031 L 71.636719 231.394531 L 80.347656 222.832031 L 88.980469 231.394531 L 97.691406 222.832031 L 106.367188 231.394531 L 106.367188 225.441406 L 97.691406 216.878906 L 88.980469 225.441406 L 80.347656 216.878906 L 71.636719 225.441406 L 62.925781 216.878906 L 54.253906 225.441406 Z M 54.253906 231.394531 "/>
</g>
</g>
<g clip-path="url(#clip9)" clip-rule="nonzero">
<g clip-path="url(#clip10)" clip-rule="nonzero">
<path style=" stroke:none;fill-rule:nonzero;fill:rgb(77.254902%,56.078431%,36.078431%);fill-opacity:1;" d="M 55.59375 241.371094 L 54.253906 242.710938 L 54.253906 247.921875 L 55.59375 246.582031 C 55.566406 246.582031 55.554688 246.570312 55.554688 246.546875 L 62.960938 239.210938 L 71.671875 247.773438 L 80.382812 239.210938 L 89.019531 247.773438 L 97.730469 239.210938 L 105.101562 246.507812 C 105.101562 246.535156 105.085938 246.546875 105.0625 246.546875 L 106.367188 247.847656 L 106.367188 242.636719 L 105.0625 241.335938 C 105.085938 241.335938 105.101562 241.320312 105.101562 241.296875 L 97.730469 234 L 89.019531 242.5625 L 80.382812 234 L 71.671875 242.5625 L 62.960938 234 L 55.554688 241.335938 C 55.554688 241.359375 55.566406 241.371094 55.59375 241.371094 M 54.253906 217.996094 L 54.253906 225.441406 L 62.925781 216.878906 L 71.636719 225.441406 L 80.347656 216.878906 L 88.980469 225.441406 L 97.691406 216.878906 L 106.367188 225.441406 L 106.367188 217.996094 L 97.691406 209.433594 L 88.980469 217.996094 L 80.347656 209.433594 L 71.636719 217.996094 L 62.925781 209.433594 Z M 54.253906 217.996094 "/>
</g>
</g>
<g clip-path="url(#clip11)" clip-rule="nonzero">
<g clip-path="url(#clip12)" clip-rule="nonzero">
<path style=" stroke:none;fill-rule:nonzero;fill:rgb(74.117647%,53.72549%,34.509804%);fill-opacity:1;" d="M 54.289062 231.394531 L 54.253906 231.394531 L 54.253906 242.710938 L 55.59375 241.371094 C 55.566406 241.371094 55.554688 241.359375 55.554688 241.335938 L 62.960938 234 L 71.671875 242.5625 L 80.382812 234 L 89.019531 242.5625 L 97.730469 234 L 105.101562 241.296875 C 105.101562 241.320312 105.085938 241.335938 105.0625 241.335938 L 106.367188 242.636719 L 106.367188 231.394531 L 97.691406 222.832031 L 88.980469 231.394531 L 80.347656 222.832031 L 71.636719 231.394531 L 62.925781 222.832031 L 61.847656 223.914062 C 59.316406 226.394531 56.796875 228.890625 54.289062 231.394531 Z M 54.289062 231.394531 "/>
</g>
</g>
<g clip-path="url(#clip13)" clip-rule="nonzero">
<g clip-path="url(#clip14)" clip-rule="nonzero">
<path style=" stroke:none;fill-rule:nonzero;fill:rgb(57.647059%,85.882353%,14.117647%);fill-opacity:1;" d="M 54.253906 196.777344 L 54.253906 198.265625 L 106.367188 198.265625 L 106.367188 196.777344 Z M 54.253906 196.777344 "/>
</g>
</g>
<g clip-path="url(#clip15)" clip-rule="nonzero">
<g clip-path="url(#clip16)" clip-rule="nonzero">
<path style=" stroke:none;fill-rule:nonzero;fill:rgb(50.196078%,74.509804%,12.156863%);fill-opacity:1;" d="M 54.253906 198.265625 L 54.253906 209.804688 L 62.925781 204.632812 L 71.636719 209.804688 L 80.347656 204.632812 L 88.980469 209.804688 L 97.691406 204.632812 L 106.367188 209.804688 L 106.367188 198.265625 Z M 54.253906 198.265625 "/>
</g>
</g>
<g clip-path="url(#clip17)" clip-rule="nonzero">
<g clip-path="url(#clip18)" clip-rule="nonzero">
<path style=" stroke:none;fill-rule:nonzero;fill:rgb(54.509804%,78.823529%,16.470588%);fill-opacity:1;" d="M 54.253906 209.804688 L 54.253906 213.15625 L 62.925781 206.640625 L 71.636719 213.15625 L 80.347656 206.640625 L 88.980469 213.15625 L 97.691406 206.640625 L 106.367188 213.15625 L 106.367188 209.804688 L 97.691406 204.632812 L 88.980469 209.804688 L 80.347656 204.632812 L 71.636719 209.804688 L 62.925781 204.632812 Z M 54.253906 209.804688 "/>
</g>
</g>
<g clip-path="url(#clip19)" clip-rule="nonzero">
<g clip-path="url(#clip20)" clip-rule="nonzero">
<path style=" stroke:none;fill-rule:nonzero;fill:rgb(73.333333%,50.196078%,26.666667%);fill-opacity:1;" d="M 2.136719 213.15625 L 2.136719 217.996094 L 10.8125 209.433594 L 19.523438 217.996094 L 28.234375 209.433594 L 36.867188 217.996094 L 45.578125 209.433594 L 54.253906 217.996094 L 54.253906 213.15625 L 45.578125 206.640625 L 36.867188 213.15625 L 28.234375 206.640625 L 19.523438 213.15625 L 10.8125 206.640625 Z M 2.136719 213.15625 "/>
</g>
</g>
<g clip-path="url(#clip21)" clip-rule="nonzero">
<g clip-path="url(#clip22)" clip-rule="nonzero">
<path style=" stroke:none;fill-rule:nonzero;fill:rgb(78.823529%,59.607843%,41.176471%);fill-opacity:1;" d="M 2.136719 247.921875 L 2.136719 248.890625 L 54.253906 248.890625 L 54.253906 247.847656 L 52.949219 246.546875 C 52.972656 246.546875 52.988281 246.535156 52.988281 246.507812 L 45.617188 239.210938 L 36.90625 247.773438 L 28.269531 239.210938 L 19.558594 247.773438 L 10.847656 239.210938 L 3.441406 246.546875 C 3.441406 246.570312 3.453125 246.582031 3.480469 246.582031 L 2.136719 247.921875 M 2.136719 231.394531 L 2.175781 231.394531 C 4.683594 228.890625 7.199219 226.394531 9.730469 223.914062 L 10.8125 222.832031 L 19.523438 231.394531 L 28.234375 222.832031 L 36.867188 231.394531 L 45.578125 222.832031 L 54.253906 231.394531 L 54.253906 225.441406 L 45.578125 216.878906 L 36.867188 225.441406 L 28.234375 216.878906 L 19.523438 225.441406 L 10.8125 216.878906 L 2.136719 225.441406 Z M 2.136719 231.394531 "/>
</g>
</g>
<g clip-path="url(#clip23)" clip-rule="nonzero">
<g clip-path="url(#clip24)" clip-rule="nonzero">
<path style=" stroke:none;fill-rule:nonzero;fill:rgb(77.254902%,56.078431%,36.078431%);fill-opacity:1;" d="M 3.480469 241.371094 L 2.136719 242.710938 L 2.136719 247.921875 L 3.480469 246.582031 C 3.453125 246.582031 3.441406 246.570312 3.441406 246.546875 L 10.847656 239.210938 L 19.558594 247.773438 L 28.269531 239.210938 L 36.90625 247.773438 L 45.617188 239.210938 L 52.988281 246.507812 C 52.988281 246.535156 52.972656 246.546875 52.949219 246.546875 L 54.253906 247.847656 L 54.253906 242.636719 L 52.949219 241.335938 C 52.972656 241.335938 52.988281 241.320312 52.988281 241.296875 L 45.617188 234 L 36.90625 242.5625 L 28.269531 234 L 19.558594 242.5625 L 10.847656 234 L 3.441406 241.335938 C 3.441406 241.359375 3.453125 241.371094 3.480469 241.371094 M 2.136719 217.996094 L 2.136719 225.441406 L 10.8125 216.878906 L 19.523438 225.441406 L 28.234375 216.878906 L 36.867188 225.441406 L 45.578125 216.878906 L 54.253906 225.441406 L 54.253906 217.996094 L 45.578125 209.433594 L 36.867188 217.996094 L 28.234375 209.433594 L 19.523438 217.996094 L 10.8125 209.433594 Z M 2.136719 217.996094 "/>
</g>
</g>
<g clip-path="url(#clip25)" clip-rule="nonzero">
<g clip-path="url(#clip26)" clip-rule="nonzero">
<path style=" stroke:none;fill-rule:nonzero;fill:rgb(74.117647%,53.72549%,34.509804%);fill-opacity:1;" d="M 2.175781 231.394531 L 2.136719 231.394531 L 2.136719 242.710938 L 3.480469 241.371094 C 3.453125 241.371094 3.441406 241.359375 3.441406 241.335938 L 10.847656 234 L 19.558594 242.5625 L 28.269531 234 L 36.90625 242.5625 L 45.617188 234 L 52.988281 241.296875 C 52.988281 241.320312 52.972656 241.335938 52.949219 241.335938 L 54.253906 242.636719 L 54.253906 231.394531 L 45.578125 222.832031 L 36.867188 231.394531 L 28.234375 222.832031 L 19.523438 231.394531 L 10.8125 222.832031 L 9.730469 223.914062 C 7.199219 226.394531 4.683594 228.890625 2.175781 231.394531 Z M 2.175781 231.394531 "/>
</g>
</g>
<g clip-path="url(#clip27)" clip-rule="nonzero">
<g clip-path="url(#clip28)" clip-rule="nonzero">
<path style=" stroke:none;fill-rule:nonzero;fill:rgb(57.647059%,85.882353%,14.117647%);fill-opacity:1;" d="M 2.136719 196.777344 L 2.136719 198.265625 L 54.253906 198.265625 L 54.253906 196.777344 Z M 2.136719 196.777344 "/>
</g>
</g>
<g clip-path="url(#clip29)" clip-rule="nonzero">
<g clip-path="url(#clip30)" clip-rule="nonzero">
<path style=" stroke:none;fill-rule:nonzero;fill:rgb(50.196078%,74.509804%,12.156863%);fill-opacity:1;" d="M 2.136719 198.265625 L 2.136719 209.804688 L 10.8125 204.632812 L 19.523438 209.804688 L 28.234375 204.632812 L 36.867188 209.804688 L 45.578125 204.632812 L 54.253906 209.804688 L 54.253906 198.265625 Z M 2.136719 198.265625 "/>
</g>
</g>
<g clip-path="url(#clip31)" clip-rule="nonzero">
<g clip-path="url(#clip32)" clip-rule="nonzero">
<path style=" stroke:none;fill-rule:nonzero;fill:rgb(54.509804%,78.823529%,16.470588%);fill-opacity:1;" d="M 2.136719 209.804688 L 2.136719 213.15625 L 10.8125 206.640625 L 19.523438 213.15625 L 28.234375 206.640625 L 36.867188 213.15625 L 45.578125 206.640625 L 54.253906 213.15625 L 54.253906 209.804688 L 45.578125 204.632812 L 36.867188 209.804688 L 28.234375 204.632812 L 19.523438 209.804688 L 10.8125 204.632812 Z M 2.136719 209.804688 "/>
</g>
</g>
<g clip-path="url(#clip33)" clip-rule="nonzero">
<g clip-path="url(#clip34)" clip-rule="nonzero">
<path style=" stroke:none;fill-rule:nonzero;fill:rgb(73.333333%,50.196078%,26.666667%);fill-opacity:1;" d="M 106.367188 213.582031 L 106.367188 218.421875 L 115.039062 209.859375 L 123.75 218.421875 L 132.460938 209.859375 L 141.097656 218.421875 L 149.804688 209.859375 L 158.480469 218.421875 L 158.480469 213.582031 L 149.804688 207.066406 L 141.097656 213.582031 L 132.460938 207.066406 L 123.75 213.582031 L 115.039062 207.066406 Z M 106.367188 213.582031 "/>
</g>
</g>
<g clip-path="url(#clip35)" clip-rule="nonzero">
<g clip-path="url(#clip36)" clip-rule="nonzero">
<path style=" stroke:none;fill-rule:nonzero;fill:rgb(78.823529%,59.607843%,41.176471%);fill-opacity:1;" d="M 106.367188 248.347656 L 106.367188 249.316406 L 158.480469 249.316406 L 158.480469 248.273438 L 157.175781 246.972656 C 157.203125 246.972656 157.214844 246.960938 157.214844 246.933594 L 149.84375 239.636719 L 141.132812 248.199219 L 132.496094 239.636719 L 123.785156 248.199219 L 115.078125 239.636719 L 107.667969 246.972656 C 107.667969 246.996094 107.679688 247.007812 107.707031 247.007812 L 106.367188 248.347656 M 106.367188 231.820312 L 106.402344 231.820312 C 108.910156 229.316406 111.429688 226.820312 113.960938 224.339844 L 115.039062 223.261719 L 123.75 231.820312 L 132.460938 223.261719 L 141.097656 231.820312 L 149.804688 223.261719 L 158.480469 231.820312 L 158.480469 225.867188 L 149.804688 217.304688 L 141.097656 225.867188 L 132.460938 217.304688 L 123.75 225.867188 L 115.039062 217.304688 L 106.367188 225.867188 Z M 106.367188 231.820312 "/>
</g>
</g>
<g clip-path="url(#clip37)" clip-rule="nonzero">
<g clip-path="url(#clip38)" clip-rule="nonzero">
<path style=" stroke:none;fill-rule:nonzero;fill:rgb(77.254902%,56.078431%,36.078431%);fill-opacity:1;" d="M 107.707031 241.796875 L 106.367188 243.136719 L 106.367188 248.347656 L 107.707031 247.007812 C 107.679688 247.007812 107.667969 246.996094 107.667969 246.972656 L 115.078125 239.636719 L 123.785156 248.199219 L 132.496094 239.636719 L 141.132812 248.199219 L 149.84375 239.636719 L 157.214844 246.933594 C 157.214844 246.960938 157.203125 246.972656 157.175781 246.972656 L 158.480469 248.273438 L 158.480469 243.0625 L 157.175781 241.761719 C 157.203125 241.761719 157.214844 241.746094 157.214844 241.722656 L 149.84375 234.425781 L 141.132812 242.988281 L 132.496094 234.425781 L 123.785156 242.988281 L 115.078125 234.425781 L 107.667969 241.761719 C 107.667969 241.785156 107.679688 241.796875 107.707031 241.796875 M 106.367188 218.421875 L 106.367188 225.867188 L 115.039062 217.304688 L 123.75 225.867188 L 132.460938 217.304688 L 141.097656 225.867188 L 149.804688 217.304688 L 158.480469 225.867188 L 158.480469 218.421875 L 149.804688 209.859375 L 141.097656 218.421875 L 132.460938 209.859375 L 123.75 218.421875 L 115.039062 209.859375 Z M 106.367188 218.421875 "/>
</g>
</g>
<g clip-path="url(#clip39)" clip-rule="nonzero">
<g clip-path="url(#clip40)" clip-rule="nonzero">
<path style=" stroke:none;fill-rule:nonzero;fill:rgb(74.117647%,53.72549%,34.509804%);fill-opacity:1;" d="M 106.402344 231.820312 L 106.367188 231.820312 L 106.367188 243.136719 L 107.707031 241.796875 C 107.679688 241.796875 107.667969 241.785156 107.667969 241.761719 L 115.078125 234.425781 L 123.785156 242.988281 L 132.496094 234.425781 L 141.132812 242.988281 L 149.84375 234.425781 L 157.214844 241.722656 C 157.214844 241.746094 157.203125 241.761719 157.175781 241.761719 L 158.480469 243.0625 L 158.480469 231.820312 L 149.804688 223.261719 L 141.097656 231.820312 L 132.460938 223.261719 L 123.75 231.820312 L 115.039062 223.261719 L 113.960938 224.339844 C 111.429688 226.820312 108.910156 229.316406 106.402344 231.820312 Z M 106.402344 231.820312 "/>
</g>
</g>
<g clip-path="url(#clip41)" clip-rule="nonzero">
<g clip-path="url(#clip42)" clip-rule="nonzero">
<path style=" stroke:none;fill-rule:nonzero;fill:rgb(57.647059%,85.882353%,14.117647%);fill-opacity:1;" d="M 106.367188 197.203125 L 106.367188 198.691406 L 158.480469 198.691406 L 158.480469 197.203125 Z M 106.367188 197.203125 "/>
</g>
</g>
<g clip-path="url(#clip43)" clip-rule="nonzero">
<g clip-path="url(#clip44)" clip-rule="nonzero">
<path style=" stroke:none;fill-rule:nonzero;fill:rgb(50.196078%,74.509804%,12.156863%);fill-opacity:1;" d="M 106.367188 198.691406 L 106.367188 210.230469 L 115.039062 205.058594 L 123.75 210.230469 L 132.460938 205.058594 L 141.097656 210.230469 L 149.804688 205.058594 L 158.480469 210.230469 L 158.480469 198.691406 Z M 106.367188 198.691406 "/>
</g>
</g>
<g clip-path="url(#clip45)" clip-rule="nonzero">
<g clip-path="url(#clip46)" clip-rule="nonzero">
<path style=" stroke:none;fill-rule:nonzero;fill:rgb(54.509804%,78.823529%,16.470588%);fill-opacity:1;" d="M 106.367188 210.230469 L 106.367188 213.582031 L 115.039062 207.066406 L 123.75 213.582031 L 132.460938 207.066406 L 141.097656 213.582031 L 149.804688 207.066406 L 158.480469 213.582031 L 158.480469 210.230469 L 149.804688 205.058594 L 141.097656 210.230469 L 132.460938 205.058594 L 123.75 210.230469 L 115.039062 205.058594 Z M 106.367188 210.230469 "/>
</g>
</g>
<g clip-path="url(#clip47)" clip-rule="nonzero">
<g clip-path="url(#clip48)" clip-rule="nonzero">
<path style=" stroke:none;fill-rule:nonzero;fill:rgb(73.333333%,50.196078%,26.666667%);fill-opacity:1;" d="M 158.480469 213.15625 L 158.480469 217.996094 L 167.152344 209.433594 L 175.863281 217.996094 L 184.574219 209.433594 L 193.210938 217.996094 L 201.921875 209.433594 L 210.59375 217.996094 L 210.59375 213.15625 L 201.921875 206.640625 L 193.210938 213.15625 L 184.574219 206.640625 L 175.863281 213.15625 L 167.152344 206.640625 Z M 158.480469 213.15625 "/>
</g>
</g>
<g clip-path="url(#clip49)" clip-rule="nonzero">
<g clip-path="url(#clip50)" clip-rule="nonzero">
<path style=" stroke:none;fill-rule:nonzero;fill:rgb(78.823529%,59.607843%,41.176471%);fill-opacity:1;" d="M 158.480469 247.921875 L 158.480469 248.890625 L 210.59375 248.890625 L 210.59375 247.847656 L 209.289062 246.546875 C 209.316406 246.546875 209.328125 246.535156 209.328125 246.507812 L 201.957031 239.210938 L 193.246094 247.773438 L 184.609375 239.210938 L 175.902344 247.773438 L 167.191406 239.210938 L 159.78125 246.546875 C 159.78125 246.570312 159.792969 246.582031 159.820312 246.582031 L 158.480469 247.921875 M 158.480469 231.394531 L 158.515625 231.394531 C 161.023438 228.890625 163.542969 226.394531 166.074219 223.914062 L 167.152344 222.832031 L 175.863281 231.394531 L 184.574219 222.832031 L 193.210938 231.394531 L 201.921875 222.832031 L 210.59375 231.394531 L 210.59375 225.441406 L 201.921875 216.878906 L 193.210938 225.441406 L 184.574219 216.878906 L 175.863281 225.441406 L 167.152344 216.878906 L 158.480469 225.441406 Z M 158.480469 231.394531 "/>
</g>
</g>
<g clip-path="url(#clip51)" clip-rule="nonzero">
<g clip-path="url(#clip52)" clip-rule="nonzero">
<path style=" stroke:none;fill-rule:nonzero;fill:rgb(77.254902%,56.078431%,36.078431%);fill-opacity:1;" d="M 159.820312 241.371094 L 158.480469 242.710938 L 158.480469 247.921875 L 159.820312 246.582031 C 159.792969 246.582031 159.78125 246.570312 159.78125 246.546875 L 167.191406 239.210938 L 175.902344 247.773438 L 184.609375 239.210938 L 193.246094 247.773438 L 201.957031 239.210938 L 209.328125 246.507812 C 209.328125 246.535156 209.316406 246.546875 209.289062 246.546875 L 210.59375 247.847656 L 210.59375 242.636719 L 209.289062 241.335938 C 209.316406 241.335938 209.328125 241.320312 209.328125 241.296875 L 201.957031 234 L 193.246094 242.5625 L 184.609375 234 L 175.902344 242.5625 L 167.191406 234 L 159.78125 241.335938 C 159.78125 241.359375 159.792969 241.371094 159.820312 241.371094 M 158.480469 217.996094 L 158.480469 225.441406 L 167.152344 216.878906 L 175.863281 225.441406 L 184.574219 216.878906 L 193.210938 225.441406 L 201.921875 216.878906 L 210.59375 225.441406 L 210.59375 217.996094 L 201.921875 209.433594 L 193.210938 217.996094 L 184.574219 209.433594 L 175.863281 217.996094 L 167.152344 209.433594 Z M 158.480469 217.996094 "/>
</g>
</g>
<g clip-path="url(#clip53)" clip-rule="nonzero">
<g clip-path="url(#clip54)" clip-rule="nonzero">
<path style=" stroke:none;fill-rule:nonzero;fill:rgb(74.117647%,53.72549%,34.509804%);fill-opacity:1;" d="M 158.515625 231.394531 L 158.480469 231.394531 L 158.480469 242.710938 L 159.820312 241.371094 C 159.792969 241.371094 159.78125 241.359375 159.78125 241.335938 L 167.191406 234 L 175.902344 242.5625 L 184.609375 234 L 193.246094 242.5625 L 201.957031 234 L 209.328125 241.296875 C 209.328125 241.320312 209.316406 241.335938 209.289062 241.335938 L 210.59375 242.636719 L 210.59375 231.394531 L 201.921875 222.832031 L 193.210938 231.394531 L 184.574219 222.832031 L 175.863281 231.394531 L 167.152344 222.832031 L 166.074219 223.914062 C 163.542969 226.394531 161.023438 228.890625 158.515625 231.394531 Z M 158.515625 231.394531 "/>
</g>
</g>
<g clip-path="url(#clip55)" clip-rule="nonzero">
<g clip-path="url(#clip56)" clip-rule="nonzero">
<path style=" stroke:none;fill-rule:nonzero;fill:rgb(57.647059%,85.882353%,14.117647%);fill-opacity:1;" d="M 158.480469 196.777344 L 158.480469 198.265625 L 210.59375 198.265625 L 210.59375 196.777344 Z M 158.480469 196.777344 "/>
</g>
</g>
<g clip-path="url(#clip57)" clip-rule="nonzero">
<g clip-path="url(#clip58)" clip-rule="nonzero">
<path style=" stroke:none;fill-rule:nonzero;fill:rgb(50.196078%,74.509804%,12.156863%);fill-opacity:1;" d="M 158.480469 198.265625 L 158.480469 209.804688 L 167.152344 204.632812 L 175.863281 209.804688 L 184.574219 204.632812 L 193.210938 209.804688 L 201.921875 204.632812 L 210.59375 209.804688 L 210.59375 198.265625 Z M 158.480469 198.265625 "/>
</g>
</g>
<g clip-path="url(#clip59)" clip-rule="nonzero">
<g clip-path="url(#clip60)" clip-rule="nonzero">
<path style=" stroke:none;fill-rule:nonzero;fill:rgb(54.509804%,78.823529%,16.470588%);fill-opacity:1;" d="M 158.480469 209.804688 L 158.480469 213.15625 L 167.152344 206.640625 L 175.863281 213.15625 L 184.574219 206.640625 L 193.210938 213.15625 L 201.921875 206.640625 L 210.59375 213.15625 L 210.59375 209.804688 L 201.921875 204.632812 L 193.210938 209.804688 L 184.574219 204.632812 L 175.863281 209.804688 L 167.152344 204.632812 Z M 158.480469 209.804688 "/>
</g>
</g>
<g clip-path="url(#clip61)" clip-rule="nonzero">
<g clip-path="url(#clip62)" clip-rule="nonzero">
<path style=" stroke:none;fill-rule:nonzero;fill:rgb(73.333333%,50.196078%,26.666667%);fill-opacity:1;" d="M 210.59375 213.15625 L 210.59375 217.996094 L 219.265625 209.433594 L 227.976562 217.996094 L 236.6875 209.433594 L 245.324219 217.996094 L 254.035156 209.433594 L 262.707031 217.996094 L 262.707031 213.15625 L 254.035156 206.640625 L 245.324219 213.15625 L 236.6875 206.640625 L 227.976562 213.15625 L 219.265625 206.640625 Z M 210.59375 213.15625 "/>
</g>
</g>
<g clip-path="url(#clip63)" clip-rule="nonzero">
<g clip-path="url(#clip64)" clip-rule="nonzero">
<path style=" stroke:none;fill-rule:nonzero;fill:rgb(78.823529%,59.607843%,41.176471%);fill-opacity:1;" d="M 210.59375 247.921875 L 210.59375 248.890625 L 262.707031 248.890625 L 262.707031 247.847656 L 261.402344 246.546875 C 261.429688 246.546875 261.441406 246.535156 261.441406 246.507812 L 254.070312 239.210938 L 245.359375 247.773438 L 236.722656 239.210938 L 228.015625 247.773438 L 219.304688 239.210938 L 211.894531 246.546875 C 211.894531 246.570312 211.910156 246.582031 211.933594 246.582031 L 210.59375 247.921875 M 210.59375 231.394531 L 210.628906 231.394531 C 213.136719 228.890625 215.65625 226.394531 218.1875 223.914062 L 219.265625 222.832031 L 227.976562 231.394531 L 236.6875 222.832031 L 245.324219 231.394531 L 254.035156 222.832031 L 262.707031 231.394531 L 262.707031 225.441406 L 254.035156 216.878906 L 245.324219 225.441406 L 236.6875 216.878906 L 227.976562 225.441406 L 219.265625 216.878906 L 210.59375 225.441406 Z M 210.59375 231.394531 "/>
</g>
</g>
<g clip-path="url(#clip65)" clip-rule="nonzero">
<g clip-path="url(#clip66)" clip-rule="nonzero">
<path style=" stroke:none;fill-rule:nonzero;fill:rgb(77.254902%,56.078431%,36.078431%);fill-opacity:1;" d="M 211.933594 241.371094 L 210.59375 242.710938 L 210.59375 247.921875 L 211.933594 246.582031 C 211.910156 246.582031 211.894531 246.570312 211.894531 246.546875 L 219.304688 239.210938 L 228.015625 247.773438 L 236.722656 239.210938 L 245.359375 247.773438 L 254.070312 239.210938 L 261.441406 246.507812 C 261.441406 246.535156 261.429688 246.546875 261.402344 246.546875 L 262.707031 247.847656 L 262.707031 242.636719 L 261.402344 241.335938 C 261.429688 241.335938 261.441406 241.320312 261.441406 241.296875 L 254.070312 234 L 245.359375 242.5625 L 236.722656 234 L 228.015625 242.5625 L 219.304688 234 L 211.894531 241.335938 C 211.894531 241.359375 211.910156 241.371094 211.933594 241.371094 M 210.59375 217.996094 L 210.59375 225.441406 L 219.265625 216.878906 L 227.976562 225.441406 L 236.6875 216.878906 L 245.324219 225.441406 L 254.035156 216.878906 L 262.707031 225.441406 L 262.707031 217.996094 L 254.035156 209.433594 L 245.324219 217.996094 L 236.6875 209.433594 L 227.976562 217.996094 L 219.265625 209.433594 Z M 210.59375 217.996094 "/>
</g>
</g>
<g clip-path="url(#clip67)" clip-rule="nonzero">
<g clip-path="url(#clip68)" clip-rule="nonzero">
<path style=" stroke:none;fill-rule:nonzero;fill:rgb(74.117647%,53.72549%,34.509804%);fill-opacity:1;" d="M 210.628906 231.394531 L 210.59375 231.394531 L 210.59375 242.710938 L 211.933594 241.371094 C 211.910156 241.371094 211.894531 241.359375 211.894531 241.335938 L 219.304688 234 L 228.015625 242.5625 L 236.722656 234 L 245.359375 242.5625 L 254.070312 234 L 261.441406 241.296875 C 261.441406 241.320312 261.429688 241.335938 261.402344 241.335938 L 262.707031 242.636719 L 262.707031 231.394531 L 254.035156 222.832031 L 245.324219 231.394531 L 236.6875 222.832031 L 227.976562 231.394531 L 219.265625 222.832031 L 218.1875 223.914062 C 215.65625 226.394531 213.136719 228.890625 210.628906 231.394531 Z M 210.628906 231.394531 "/>
</g>
</g>
<g clip-path="url(#clip69)" clip-rule="nonzero">
<g clip-path="url(#clip70)" clip-rule="nonzero">
<path style=" stroke:none;fill-rule:nonzero;fill:rgb(57.647059%,85.882353%,14.117647%);fill-opacity:1;" d="M 210.59375 196.777344 L 210.59375 198.265625 L 262.707031 198.265625 L 262.707031 196.777344 Z M 210.59375 196.777344 "/>
</g>
</g>
<g clip-path="url(#clip71)" clip-rule="nonzero">
<g clip-path="url(#clip72)" clip-rule="nonzero">
<path style=" stroke:none;fill-rule:nonzero;fill:rgb(50.196078%,74.509804%,12.156863%);fill-opacity:1;" d="M 210.59375 198.265625 L 210.59375 209.804688 L 219.265625 204.632812 L 227.976562 209.804688 L 236.6875 204.632812 L 245.324219 209.804688 L 254.035156 204.632812 L 262.707031 209.804688 L 262.707031 198.265625 Z M 210.59375 198.265625 "/>
</g>
</g>
<g clip-path="url(#clip73)" clip-rule="nonzero">
<g clip-path="url(#clip74)" clip-rule="nonzero">
<path style=" stroke:none;fill-rule:nonzero;fill:rgb(54.509804%,78.823529%,16.470588%);fill-opacity:1;" d="M 210.59375 209.804688 L 210.59375 213.15625 L 219.265625 206.640625 L 227.976562 213.15625 L 236.6875 206.640625 L 245.324219 213.15625 L 254.035156 206.640625 L 262.707031 213.15625 L 262.707031 209.804688 L 254.035156 204.632812 L 245.324219 209.804688 L 236.6875 204.632812 L 227.976562 209.804688 L 219.265625 204.632812 Z M 210.59375 209.804688 "/>
</g>
</g>
<path style=" stroke:none;fill-rule:nonzero;fill:rgb(43.529412%,76.862745%,66.27451%);fill-opacity:1;" d="M 147.019531 171.246094 C 147.019531 174.5 145.375 177.34375 142.085938 179.777344 C 144.003906 181.902344 145.117188 184.589844 145.425781 187.847656 C 146.488281 188.976562 147.773438 189.097656 149.28125 188.207031 C 150.480469 187.039062 151.300781 185.480469 151.746094 183.527344 C 152.601562 179.65625 151.027344 175.425781 147.019531 170.835938 L 147.019531 171.246094 M 109.296875 180.804688 C 108.269531 180.15625 107.363281 179.488281 106.574219 178.800781 C 106.949219 182.636719 105.75 186.097656 102.976562 189.183594 C 102.601562 190.929688 103.320312 192.078125 105.136719 192.625 C 106.746094 192.726562 108.40625 192.300781 110.121094 191.339844 C 112.757812 189.902344 114.625 187.296875 115.722656 183.527344 C 113.390625 182.878906 111.25 181.96875 109.296875 180.804688 Z M 109.296875 180.804688 "/>
<path style=" stroke:none;fill-rule:nonzero;fill:rgb(39.215686%,72.156863%,61.568627%);fill-opacity:1;" d="M 147.019531 170.835938 C 145.820312 169.464844 144.414062 168.0625 142.804688 166.621094 C 138.898438 168.300781 136.292969 171.230469 134.992188 175.410156 C 138.007812 176.402344 140.371094 177.859375 142.085938 179.777344 C 145.375 177.34375 147.019531 174.5 147.019531 171.246094 L 147.019531 170.835938 M 116.851562 173.40625 C 112.980469 171.589844 109.058594 171.589844 105.082031 173.40625 C 105.90625 175.289062 106.402344 177.089844 106.574219 178.800781 C 107.363281 179.488281 108.269531 180.15625 109.296875 180.804688 C 111.25 181.96875 113.390625 182.878906 115.722656 183.527344 C 116.507812 180.789062 116.886719 177.414062 116.851562 173.40625 Z M 116.851562 173.40625 "/>
<path style=" stroke:none;fill-rule:nonzero;fill:rgb(53.72549%,85.098039%,75.294118%);fill-opacity:1;" d="M 140.542969 113.585938 C 144.722656 117.765625 146.882812 122.804688 147.019531 128.695312 L 147.019531 127.152344 C 147.019531 121.054688 144.859375 115.847656 140.542969 111.53125 C 136.226562 107.214844 131.019531 105.054688 124.921875 105.054688 C 118.820312 105.054688 113.613281 107.214844 109.296875 111.53125 C 104.980469 115.847656 102.824219 121.054688 102.824219 127.152344 L 102.824219 128.695312 C 102.960938 122.804688 105.117188 117.765625 109.296875 113.585938 C 113.613281 109.269531 118.820312 107.113281 124.921875 107.113281 C 131.019531 107.113281 136.226562 109.269531 140.542969 113.585938 Z M 140.542969 113.585938 "/>
<path style=" stroke:none;fill-rule:nonzero;fill:rgb(43.529412%,76.862745%,66.27451%);fill-opacity:1;" d="M 147.019531 128.695312 C 146.882812 122.804688 144.722656 117.765625 140.542969 113.585938 C 136.226562 109.269531 131.019531 107.113281 124.921875 107.113281 C 118.820312 107.113281 113.613281 109.269531 109.296875 113.585938 C 105.117188 117.765625 102.960938 122.804688 102.824219 128.695312 L 102.824219 168.933594 C 102.925781 172.566406 105.082031 175.667969 109.296875 178.234375 C 113.613281 180.839844 118.820312 182.140625 124.921875 182.140625 C 131.019531 182.140625 136.226562 180.839844 140.542969 178.234375 C 144.757812 175.667969 146.914062 172.566406 147.019531 168.933594 Z M 147.019531 128.695312 "/>
<path style=" stroke:none;fill-rule:nonzero;fill:rgb(20.392157%,49.411765%,40.392157%);fill-opacity:1;" d="M 144.292969 138.921875 C 144.292969 137.550781 143.78125 136.351562 142.753906 135.324219 C 141.757812 134.332031 140.578125 133.835938 139.207031 133.835938 C 137.769531 133.835938 136.535156 134.332031 135.507812 135.324219 C 134.546875 136.351562 134.066406 137.550781 134.066406 138.921875 C 134.066406 140.292969 134.546875 141.457031 135.507812 142.417969 C 136.535156 143.445312 137.769531 143.957031 139.207031 143.957031 C 140.578125 143.957031 141.757812 143.445312 142.753906 142.417969 C 143.78125 141.457031 144.292969 140.292969 144.292969 138.921875 M 117.316406 135.324219 C 116.355469 136.351562 115.875 137.550781 115.875 138.921875 C 115.875 140.292969 116.355469 141.457031 117.316406 142.417969 C 118.34375 143.445312 119.574219 143.957031 121.015625 143.957031 C 122.386719 143.957031 123.566406 143.445312 124.5625 142.417969 C 125.589844 141.457031 126.101562 140.292969 126.101562 138.921875 C 126.101562 137.550781 125.589844 136.351562 124.5625 135.324219 C 123.566406 134.332031 122.386719 133.835938 121.015625 133.835938 C 119.574219 133.835938 118.34375 134.332031 117.316406 135.324219 Z M 117.316406 135.324219 "/>
<path style=" stroke:none;fill-rule:nonzero;fill:rgb(20.392157%,49.411765%,40.392157%);fill-opacity:1;" d="M 128.210938 147.914062 C 127.730469 148.429688 127.488281 149.046875 127.488281 149.765625 C 127.488281 150.484375 127.730469 151.085938 128.210938 151.5625 C 128.722656 152.078125 129.339844 152.335938 130.058594 152.335938 C 130.777344 152.335938 131.378906 152.078125 131.859375 151.5625 C 132.371094 151.085938 132.628906 150.484375 132.628906 149.765625 C 132.628906 149.046875 132.371094 148.429688 131.859375 147.914062 C 131.378906 147.4375 130.777344 147.195312 130.058594 147.195312 C 129.339844 147.195312 128.722656 147.4375 128.210938 147.914062 Z M 128.210938 147.914062 "/>
<path style=" stroke:none;fill-rule:nonzero;fill:rgb(43.529412%,76.862745%,66.27451%);fill-opacity:1;" d="M 157.140625 149.25 C 156.492188 149.457031 155.976562 149.886719 155.601562 150.535156 C 152.859375 155.4375 149.449219 156.617188 145.375 154.082031 L 140.644531 162.304688 C 140.75 162.375 140.851562 162.390625 140.953125 162.355469 C 149.585938 163.65625 155.960938 160.539062 160.070312 153.003906 C 160.414062 152.351562 160.5 151.703125 160.328125 151.050781 C 160.121094 150.398438 159.710938 149.886719 159.09375 149.507812 C 158.476562 149.167969 157.828125 149.082031 157.140625 149.25 M 92.597656 168.675781 C 92.628906 169.398438 92.886719 169.996094 93.367188 170.476562 C 93.878906 170.957031 94.496094 171.195312 95.214844 171.195312 C 95.9375 171.195312 96.535156 170.9375 97.015625 170.425781 C 97.496094 169.910156 97.734375 169.292969 97.734375 168.574219 C 97.632812 162.957031 99.980469 160.214844 104.777344 160.351562 L 104.777344 150.894531 C 104.671875 150.894531 104.570312 150.929688 104.46875 151 C 96.347656 154.183594 92.390625 160.078125 92.597656 168.675781 Z M 92.597656 168.675781 "/>
<path style=" stroke:none;fill-rule:nonzero;fill:rgb(54.509804%,81.176471%,72.941176%);fill-opacity:0.501961;" d="M 134.683594 172.789062 C 134.683594 173.371094 134.890625 173.867188 135.300781 174.277344 C 135.710938 174.691406 136.210938 174.894531 136.792969 174.894531 C 137.375 174.894531 137.871094 174.691406 138.28125 174.277344 C 138.691406 173.867188 138.898438 173.371094 138.898438 172.789062 C 138.898438 172.207031 138.691406 171.710938 138.28125 171.296875 C 137.871094 170.886719 137.375 170.679688 136.792969 170.679688 C 136.210938 170.679688 135.710938 170.886719 135.300781 171.296875 C 134.890625 171.710938 134.683594 172.207031 134.683594 172.789062 M 141.828125 163.796875 C 141.246094 163.210938 140.542969 162.921875 139.722656 162.921875 C 138.898438 162.921875 138.195312 163.210938 137.613281 163.796875 C 137.03125 164.378906 136.742188 165.078125 136.742188 165.902344 C 136.742188 166.722656 137.03125 167.425781 137.613281 168.007812 C 138.195312 168.589844 138.898438 168.882812 139.722656 168.882812 C 140.542969 168.882812 141.246094 168.589844 141.828125 168.007812 C 142.410156 167.425781 142.703125 166.722656 142.703125 165.902344 C 142.703125 165.078125 142.410156 164.378906 141.828125 163.796875 M 124.816406 176.796875 C 125.605469 177.585938 126.566406 177.980469 127.695312 177.980469 C 128.824219 177.980469 129.785156 177.585938 130.574219 176.796875 C 131.363281 176.007812 131.753906 175.050781 131.753906 173.917969 C 131.753906 172.789062 131.363281 171.828125 130.574219 171.042969 C 129.785156 170.253906 128.824219 169.859375 127.695312 169.859375 C 126.566406 169.859375 125.605469 170.253906 124.816406 171.042969 C 124.03125 171.828125 123.636719 172.789062 123.636719 173.917969 C 123.636719 175.050781 124.03125 176.007812 124.816406 176.796875 Z M 124.816406 176.796875 "/>
<path style=" stroke:none;fill-rule:nonzero;fill:rgb(100%,100%,100%);fill-opacity:1;" d="M 158.425781 128.128906 C 158.425781 127.511719 158.410156 126.898438 158.375 126.28125 C 157.964844 117.816406 154.726562 110.554688 148.664062 104.492188 C 142.085938 97.945312 134.171875 94.675781 124.921875 94.675781 C 115.671875 94.675781 107.789062 97.945312 101.28125 104.492188 C 95.148438 110.554688 91.875 117.816406 91.464844 126.28125 C 91.429688 126.898438 91.414062 127.511719 91.414062 128.128906 C 91.414062 128.746094 91.429688 129.347656 91.464844 129.929688 C 91.566406 131.914062 91.824219 133.851562 92.234375 135.734375 C 93.574219 141.800781 96.585938 147.179688 101.28125 151.871094 C 107.789062 158.382812 115.671875 161.636719 124.921875 161.636719 C 134.171875 161.636719 142.085938 158.382812 148.664062 151.871094 C 153.320312 147.179688 156.320312 141.800781 157.65625 135.734375 C 158.03125 133.851562 158.273438 131.914062 158.375 129.929688 C 158.410156 129.347656 158.425781 128.746094 158.425781 128.128906 M 153.238281 126.28125 C 153.269531 126.898438 153.289062 127.511719 153.289062 128.128906 C 153.289062 128.746094 153.269531 129.347656 153.238281 129.929688 C 153.132812 131.949219 152.84375 133.886719 152.363281 135.734375 C 151.128906 140.394531 148.679688 144.558594 145.015625 148.222656 C 139.429688 153.738281 132.730469 156.496094 124.921875 156.496094 C 117.109375 156.496094 110.445312 153.738281 104.929688 148.222656 C 101.265625 144.558594 98.796875 140.394531 97.53125 135.734375 C 97.015625 133.886719 96.707031 131.949219 96.605469 129.929688 C 96.570312 129.347656 96.554688 128.746094 96.554688 128.128906 C 96.554688 127.511719 96.570312 126.898438 96.605469 126.28125 C 97.015625 119.257812 99.789062 113.210938 104.929688 108.140625 C 110.445312 102.589844 117.109375 99.8125 124.921875 99.8125 C 132.730469 99.8125 139.429688 102.589844 145.015625 108.140625 C 150.085938 113.210938 152.824219 119.257812 153.238281 126.28125 Z M 153.238281 126.28125 "/>
<path style=" stroke:none;fill-rule:nonzero;fill:rgb(100%,100%,100%);fill-opacity:0.2;" d="M 153.289062 128.128906 C 153.289062 127.511719 153.269531 126.898438 153.238281 126.28125 C 152.824219 119.257812 150.085938 113.210938 145.015625 108.140625 C 139.429688 102.589844 132.730469 99.8125 124.921875 99.8125 C 117.109375 99.8125 110.445312 102.589844 104.929688 108.140625 C 99.789062 113.210938 97.015625 119.257812 96.605469 126.28125 C 96.570312 126.898438 96.554688 127.511719 96.554688 128.128906 C 96.554688 128.746094 96.570312 129.347656 96.605469 129.929688 C 96.707031 131.949219 97.015625 133.886719 97.53125 135.734375 C 98.796875 140.394531 101.265625 144.558594 104.929688 148.222656 C 110.445312 153.738281 117.109375 156.496094 124.921875 156.496094 C 132.730469 156.496094 139.429688 153.738281 145.015625 148.222656 C 148.679688 144.558594 151.128906 140.394531 152.363281 135.734375 C 152.84375 133.886719 153.132812 131.949219 153.238281 129.929688 C 153.269531 129.347656 153.289062 128.746094 153.289062 128.128906 M 150.667969 129.773438 L 150.667969 129.824219 C 150.5625 131.882812 150.238281 133.851562 149.691406 135.734375 C 135.78125 140.910156 119.285156 140.910156 100.203125 135.734375 C 99.652344 133.851562 99.3125 131.863281 99.175781 129.773438 C 99.140625 129.226562 99.121094 128.679688 99.121094 128.128906 C 99.121094 127.546875 99.140625 126.984375 99.175781 126.433594 C 99.550781 120.0625 102.070312 114.582031 106.726562 109.988281 L 106.78125 109.9375 C 111.78125 104.902344 117.828125 102.382812 124.921875 102.382812 C 132.046875 102.382812 138.144531 104.917969 143.214844 109.988281 C 147.804688 114.582031 150.289062 120.0625 150.667969 126.433594 C 150.703125 126.984375 150.71875 127.546875 150.71875 128.128906 C 150.71875 128.679688 150.703125 129.226562 150.667969 129.773438 Z M 150.667969 129.773438 "/>
<path style=" stroke:none;fill-rule:nonzero;fill:rgb(100%,100%,100%);fill-opacity:0.301961;" d="M 150.667969 129.824219 L 150.667969 129.773438 C 150.703125 129.226562 150.71875 128.679688 150.71875 128.128906 C 150.71875 127.546875 150.703125 126.984375 150.667969 126.433594 C 150.289062 120.0625 147.804688 114.582031 143.214844 109.988281 C 138.144531 104.917969 132.046875 102.382812 124.921875 102.382812 C 117.828125 102.382812 111.78125 104.902344 106.78125 109.9375 L 106.726562 109.988281 C 102.070312 114.582031 99.550781 120.0625 99.175781 126.433594 C 99.140625 126.984375 99.121094 127.546875 99.121094 128.128906 C 99.121094 128.679688 99.140625 129.226562 99.175781 129.773438 C 99.3125 131.863281 99.652344 133.851562 100.203125 135.734375 C 119.285156 140.910156 135.78125 140.910156 149.691406 135.734375 C 150.238281 133.851562 150.5625 131.882812 150.667969 129.824219 Z M 150.667969 129.824219 "/>
<path style=" stroke:none;fill-rule:nonzero;fill:url(#linear0);" d="M 198.511719 117.316406 L 198.511719 111.546875 L 188.421875 111.546875 L 188.421875 117.316406 C 188.421875 118.457031 188.980469 119.027344 190.097656 119.027344 L 191.363281 119.027344 C 191.511719 119.027344 191.636719 118.964844 191.738281 118.84375 C 191.859375 118.742188 191.921875 118.617188 191.921875 118.46875 L 191.921875 117.578125 L 195.011719 117.578125 L 195.011719 118.46875 C 195.011719 118.617188 195.074219 118.742188 195.199219 118.84375 C 195.296875 118.964844 195.421875 119.027344 195.570312 119.027344 L 196.835938 119.027344 C 197.953125 119.027344 198.511719 118.457031 198.511719 117.316406 Z M 198.511719 117.316406 "/>
<path style=" stroke:none;fill-rule:nonzero;fill:rgb(45.098039%,80.392157%,29.411765%);fill-opacity:1;" d="M 200.410156 108.902344 C 200.382812 108.777344 200.347656 108.65625 200.296875 108.53125 C 200.199219 108.308594 200.074219 108.097656 199.925781 107.898438 C 199.40625 107.277344 198.820312 106.980469 198.175781 107.003906 L 182.800781 107.003906 C 182.480469 105.566406 181.921875 104.273438 181.128906 103.132812 C 181.101562 103.082031 181.078125 103.046875 181.054688 103.023438 C 180.53125 102.328125 179.984375 101.730469 179.414062 101.234375 C 178.125 100.167969 176.671875 99.648438 175.058594 99.671875 L 175.023438 99.671875 C 173.359375 99.648438 171.894531 100.167969 170.628906 101.234375 C 170.058594 101.730469 169.527344 102.328125 169.03125 103.023438 C 169.003906 103.023438 168.980469 103.046875 168.957031 103.097656 C 167.8125 104.683594 167.179688 106.558594 167.058594 108.71875 C 167.03125 108.765625 167.019531 108.828125 167.019531 108.902344 C 166.996094 108.988281 166.984375 109.089844 166.980469 109.199219 L 166.980469 109.351562 C 167.058594 111.804688 167.738281 113.914062 169.03125 115.679688 C 170.644531 117.960938 172.640625 119.078125 175.023438 119.027344 L 175.058594 119.027344 C 177.394531 119.078125 179.390625 117.960938 181.054688 115.679688 C 181.921875 114.4375 182.515625 113.058594 182.839844 111.546875 L 198.511719 111.546875 L 198.511719 111.507812 C 199.03125 111.433594 199.503906 111.160156 199.925781 110.691406 L 199.925781 110.652344 C 200.222656 110.253906 200.410156 109.796875 200.484375 109.273438 L 200.484375 109.238281 C 200.480469 109.109375 200.453125 108.996094 200.410156 108.902344 M 177.480469 108.792969 C 177.480469 108.816406 177.480469 108.851562 177.480469 108.902344 C 177.480469 109.050781 177.480469 109.199219 177.480469 109.351562 C 177.480469 109.5 177.480469 109.648438 177.480469 109.796875 L 177.480469 109.832031 C 177.480469 109.859375 177.480469 109.882812 177.480469 109.90625 C 177.480469 111.296875 177.144531 112.488281 176.472656 113.480469 C 176.449219 113.53125 176.425781 113.582031 176.398438 113.628906 C 176.003906 114.125 175.542969 114.414062 175.023438 114.488281 C 174.5 114.414062 174.042969 114.125 173.644531 113.628906 C 173.644531 113.582031 173.632812 113.53125 173.609375 113.480469 C 172.886719 112.488281 172.527344 111.296875 172.527344 109.90625 C 172.527344 109.710938 172.542969 109.523438 172.566406 109.351562 C 172.542969 109.199219 172.527344 109.050781 172.527344 108.902344 C 172.527344 108.851562 172.527344 108.816406 172.527344 108.792969 C 172.527344 108.71875 172.527344 108.65625 172.527344 108.605469 C 172.554688 107.265625 172.914062 106.125 173.609375 105.179688 L 173.570312 105.179688 C 173.992188 104.609375 174.476562 104.289062 175.023438 104.210938 C 175.59375 104.289062 176.078125 104.609375 176.472656 105.179688 C 177.121094 106.171875 177.453125 107.339844 177.480469 108.679688 L 177.480469 108.71875 C 177.480469 108.742188 177.480469 108.765625 177.480469 108.792969 Z M 177.480469 108.792969 "/>
<path style=" stroke:none;fill-rule:nonzero;fill:rgb(69.411765%,89.019608%,60.784314%);fill-opacity:1;" d="M 177.480469 108.902344 C 177.480469 108.851562 177.480469 108.816406 177.480469 108.792969 C 177.429688 110.03125 177.09375 111.097656 176.472656 111.992188 C 176.449219 112.042969 176.425781 112.09375 176.398438 112.140625 C 176.003906 112.636719 175.542969 112.921875 175.023438 112.996094 C 174.5 112.921875 174.042969 112.636719 173.644531 112.140625 C 173.644531 112.09375 173.632812 112.042969 173.609375 111.992188 C 172.914062 111.050781 172.554688 109.921875 172.527344 108.605469 C 172.527344 108.65625 172.527344 108.71875 172.527344 108.792969 C 172.527344 108.816406 172.527344 108.851562 172.527344 108.902344 C 172.527344 109.050781 172.542969 109.199219 172.566406 109.351562 C 172.542969 109.523438 172.527344 109.710938 172.527344 109.90625 C 172.527344 111.296875 172.886719 112.488281 173.609375 113.480469 C 173.632812 113.53125 173.644531 113.582031 173.644531 113.628906 C 174.042969 114.125 174.5 114.414062 175.023438 114.488281 C 175.542969 114.414062 176.003906 114.125 176.398438 113.628906 C 176.425781 113.582031 176.449219 113.53125 176.472656 113.480469 C 177.144531 112.488281 177.480469 111.296875 177.480469 109.90625 C 177.480469 109.882812 177.480469 109.859375 177.480469 109.832031 L 177.480469 109.796875 C 177.480469 109.648438 177.480469 109.5 177.480469 109.351562 C 177.480469 109.199219 177.480469 109.050781 177.480469 108.902344 M 199.925781 106.410156 C 199.40625 105.789062 198.820312 105.492188 198.175781 105.515625 L 182.800781 105.515625 C 182.480469 104.078125 181.921875 102.785156 181.128906 101.644531 C 181.101562 101.59375 181.078125 101.558594 181.054688 101.53125 C 180.53125 100.835938 179.984375 100.242188 179.414062 99.746094 C 178.125 98.679688 176.671875 98.15625 175.058594 98.183594 L 175.023438 98.183594 C 173.359375 98.15625 171.894531 98.679688 170.628906 99.746094 C 170.058594 100.242188 169.527344 100.835938 169.03125 101.53125 C 169.003906 101.53125 168.980469 101.558594 168.957031 101.605469 C 167.789062 103.246094 167.144531 105.179688 167.019531 107.414062 C 166.996094 107.539062 166.980469 107.675781 166.980469 107.824219 L 166.980469 109.199219 C 166.988281 109.089844 167 108.988281 167.019531 108.902344 C 167.019531 108.828125 167.03125 108.765625 167.058594 108.71875 C 167.179688 106.558594 167.8125 104.683594 168.957031 103.097656 C 168.980469 103.046875 169.003906 103.023438 169.03125 103.023438 C 169.527344 102.328125 170.058594 101.730469 170.628906 101.234375 C 171.894531 100.167969 173.359375 99.648438 175.023438 99.671875 L 175.058594 99.671875 C 176.671875 99.648438 178.125 100.167969 179.414062 101.234375 C 179.984375 101.730469 180.53125 102.328125 181.054688 103.023438 C 181.078125 103.046875 181.101562 103.082031 181.128906 103.132812 C 181.921875 104.273438 182.480469 105.566406 182.800781 107.003906 L 198.175781 107.003906 C 198.820312 106.980469 199.40625 107.277344 199.925781 107.898438 C 200.074219 108.097656 200.199219 108.308594 200.296875 108.53125 C 200.347656 108.65625 200.382812 108.777344 200.410156 108.902344 C 200.457031 108.996094 200.480469 109.109375 200.484375 109.238281 L 200.484375 107.785156 C 200.484375 107.636719 200.460938 107.511719 200.410156 107.414062 C 200.308594 107.066406 200.148438 106.730469 199.925781 106.410156 Z M 199.925781 106.410156 "/>
<path style=" stroke:none;fill-rule:nonzero;fill:rgb(47.843137%,71.764706%,11.764706%);fill-opacity:1;" d="M 188.1875 183.617188 C 185.878906 185.898438 184.652344 188.640625 184.5 191.84375 C 184.574219 193.503906 184.960938 195.042969 185.65625 196.457031 L 235.722656 196.457031 C 236.191406 195.292969 236.480469 194.039062 236.578125 192.699219 C 236.402344 189.820312 235.273438 187.339844 233.191406 185.253906 L 233.152344 185.253906 C 231.886719 183.9375 230.484375 183.007812 228.945312 182.460938 C 228.597656 178.34375 226.925781 174.769531 223.921875 171.742188 L 223.882812 171.742188 C 220.558594 168.367188 216.5 166.679688 211.710938 166.679688 C 207.023438 166.679688 202.976562 168.367188 199.578125 171.742188 C 197.144531 174.148438 195.605469 176.929688 194.960938 180.082031 C 192.40625 180.476562 190.148438 181.65625 188.1875 183.617188 Z M 188.1875 183.617188 "/>
<path style=" stroke:none;fill-rule:nonzero;fill:rgb(55.294118%,82.745098%,13.72549%);fill-opacity:1;" d="M 184.5 191.84375 C 184.652344 188.640625 185.878906 185.898438 188.1875 183.617188 C 190.148438 181.65625 192.40625 180.476562 194.960938 180.082031 C 195.605469 176.929688 197.144531 174.148438 199.578125 171.742188 C 202.976562 168.367188 207.023438 166.679688 211.710938 166.679688 C 216.5 166.679688 220.558594 168.367188 223.882812 171.742188 L 223.921875 171.742188 C 226.925781 174.769531 228.597656 178.34375 228.945312 182.460938 C 230.484375 183.007812 231.886719 183.9375 233.152344 185.253906 L 233.191406 185.253906 C 235.273438 187.339844 236.402344 189.820312 236.578125 192.699219 C 236.578125 192.449219 236.578125 192.203125 236.578125 191.953125 C 236.578125 188.753906 235.449219 186.023438 233.191406 183.765625 L 233.152344 183.765625 C 231.886719 182.449219 230.484375 181.519531 228.945312 180.972656 C 228.597656 176.855469 226.925781 173.28125 223.921875 170.253906 L 223.882812 170.253906 C 220.558594 166.878906 216.5 165.191406 211.710938 165.191406 C 207.023438 165.191406 202.976562 166.878906 199.578125 170.253906 C 197.144531 172.660156 195.605469 175.441406 194.960938 178.589844 C 192.40625 178.988281 190.148438 180.167969 188.1875 182.128906 C 185.707031 184.585938 184.464844 187.574219 184.464844 191.097656 C 184.464844 191.347656 184.476562 191.59375 184.5 191.84375 Z M 184.5 191.84375 "/>
<path style=" stroke:none;fill-rule:nonzero;fill:rgb(50.196078%,74.509804%,12.156863%);fill-opacity:1;" d="M 220.199219 185.292969 C 220.199219 184.273438 219.828125 183.40625 219.082031 182.6875 C 218.363281 181.941406 217.496094 181.570312 216.476562 181.570312 C 215.460938 181.570312 214.578125 181.941406 213.835938 182.6875 C 213.113281 183.40625 212.753906 184.273438 212.753906 185.292969 C 212.753906 186.308594 213.113281 187.191406 213.835938 187.933594 C 214.578125 188.652344 215.460938 189.015625 216.476562 189.015625 C 217.496094 189.015625 218.363281 188.652344 219.082031 187.933594 C 219.828125 187.191406 220.199219 186.308594 220.199219 185.292969 M 223.25 180.898438 C 223.699219 180.453125 223.921875 179.917969 223.921875 179.296875 C 223.921875 178.703125 223.699219 178.183594 223.25 177.734375 C 222.828125 177.3125 222.308594 177.101562 221.6875 177.101562 C 221.09375 177.101562 220.558594 177.3125 220.085938 177.734375 C 219.664062 178.183594 219.453125 178.703125 219.453125 179.296875 C 219.453125 179.917969 219.664062 180.453125 220.085938 180.898438 C 220.558594 181.347656 221.09375 181.570312 221.6875 181.570312 C 222.308594 181.570312 222.828125 181.347656 223.25 180.898438 M 216.328125 175.019531 C 215.757812 174.421875 215.050781 174.125 214.207031 174.125 C 213.414062 174.125 212.71875 174.421875 212.121094 175.019531 C 211.550781 175.589844 211.265625 176.285156 211.265625 177.101562 C 211.265625 177.921875 211.550781 178.617188 212.121094 179.1875 C 212.71875 179.78125 213.414062 180.082031 214.207031 180.082031 C 215.050781 180.082031 215.757812 179.78125 216.328125 179.1875 C 216.921875 178.617188 217.222656 177.921875 217.222656 177.101562 C 217.222656 176.285156 216.921875 175.589844 216.328125 175.019531 Z M 216.328125 175.019531 "/>
<path style=" stroke:none;fill-rule:nonzero;fill:rgb(47.843137%,71.764706%,11.764706%);fill-opacity:1;" d="M 21.777344 183.359375 C 19.46875 185.640625 18.242188 188.382812 18.09375 191.585938 C 18.167969 193.25 18.550781 194.785156 19.246094 196.203125 L 69.3125 196.203125 C 69.785156 195.035156 70.070312 193.78125 70.167969 192.441406 C 69.996094 189.5625 68.867188 187.082031 66.78125 184.996094 L 66.746094 184.996094 C 65.480469 183.683594 64.078125 182.75 62.539062 182.207031 C 62.191406 178.085938 60.515625 174.511719 57.511719 171.484375 L 57.476562 171.484375 C 54.152344 168.109375 50.09375 166.421875 45.304688 166.421875 C 40.613281 166.421875 36.570312 168.109375 33.167969 171.484375 C 30.738281 173.890625 29.199219 176.671875 28.554688 179.824219 C 25.996094 180.21875 23.738281 181.398438 21.777344 183.359375 Z M 21.777344 183.359375 "/>
<path style=" stroke:none;fill-rule:nonzero;fill:rgb(55.294118%,82.745098%,13.72549%);fill-opacity:1;" d="M 18.09375 191.585938 C 18.242188 188.382812 19.46875 185.640625 21.777344 183.359375 C 23.738281 181.398438 25.996094 180.21875 28.554688 179.824219 C 29.199219 176.671875 30.738281 173.890625 33.167969 171.484375 C 36.570312 168.109375 40.613281 166.421875 45.304688 166.421875 C 50.09375 166.421875 54.152344 168.109375 57.476562 171.484375 L 57.511719 171.484375 C 60.515625 174.511719 62.191406 178.085938 62.539062 182.207031 C 64.078125 182.75 65.480469 183.683594 66.746094 184.996094 L 66.78125 184.996094 C 68.867188 187.082031 69.996094 189.5625 70.167969 192.441406 C 70.167969 192.195312 70.167969 191.945312 70.167969 191.695312 C 70.167969 188.496094 69.039062 185.765625 66.78125 183.507812 L 66.746094 183.507812 C 65.480469 182.191406 64.078125 181.261719 62.539062 180.714844 C 62.191406 176.597656 60.515625 173.023438 57.511719 169.996094 L 57.476562 169.996094 C 54.152344 166.621094 50.09375 164.933594 45.304688 164.933594 C 40.613281 164.933594 36.570312 166.621094 33.167969 169.996094 C 30.738281 172.402344 29.199219 175.183594 28.554688 178.332031 C 25.996094 178.730469 23.738281 179.910156 21.777344 181.871094 C 19.296875 184.328125 18.054688 187.316406 18.054688 190.839844 C 18.054688 191.089844 18.066406 191.335938 18.09375 191.585938 Z M 18.09375 191.585938 "/>
<path style=" stroke:none;fill-rule:nonzero;fill:rgb(50.196078%,74.509804%,12.156863%);fill-opacity:1;" d="M 53.984375 187.332031 C 53.984375 186.316406 53.609375 185.445312 52.867188 184.726562 C 52.144531 183.984375 51.277344 183.609375 50.261719 183.609375 C 49.242188 183.609375 48.363281 183.984375 47.617188 184.726562 C 46.898438 185.445312 46.539062 186.316406 46.539062 187.332031 C 46.539062 188.351562 46.898438 189.230469 47.617188 189.976562 C 48.363281 190.695312 49.242188 191.054688 50.261719 191.054688 C 51.277344 191.054688 52.144531 190.695312 52.867188 189.976562 C 53.609375 189.230469 53.984375 188.351562 53.984375 187.332031 M 57.035156 182.941406 C 57.480469 182.492188 57.703125 181.960938 57.703125 181.339844 C 57.703125 180.746094 57.480469 180.222656 57.035156 179.777344 C 56.613281 179.355469 56.09375 179.144531 55.472656 179.144531 C 54.875 179.144531 54.34375 179.355469 53.871094 179.777344 C 53.449219 180.222656 53.238281 180.746094 53.238281 181.339844 C 53.238281 181.960938 53.449219 182.492188 53.871094 182.941406 C 54.34375 183.386719 54.875 183.609375 55.472656 183.609375 C 56.09375 183.609375 56.613281 183.386719 57.035156 182.941406 M 50.109375 177.058594 C 49.539062 176.464844 48.832031 176.164062 47.988281 176.164062 C 47.195312 176.164062 46.5 176.464844 45.90625 177.058594 C 45.335938 177.628906 45.046875 178.324219 45.046875 179.144531 C 45.046875 179.960938 45.335938 180.65625 45.90625 181.226562 C 46.5 181.824219 47.195312 182.121094 47.988281 182.121094 C 48.832031 182.121094 49.539062 181.824219 50.109375 181.226562 C 50.707031 180.65625 51.003906 179.960938 51.003906 179.144531 C 51.003906 178.324219 50.707031 177.628906 50.109375 177.058594 Z M 50.109375 177.058594 "/>
<path style=" stroke:none;fill-rule:nonzero;fill:url(#linear1);" d="M 57.390625 190.050781 L 57.390625 187.539062 L 53 187.539062 L 53 190.050781 C 53 190.546875 53.242188 190.796875 53.726562 190.796875 L 54.277344 190.796875 C 54.34375 190.796875 54.398438 190.769531 54.441406 190.714844 C 54.496094 190.671875 54.523438 190.617188 54.523438 190.554688 L 54.523438 190.164062 L 55.867188 190.164062 L 55.867188 190.554688 C 55.867188 190.617188 55.894531 190.671875 55.949219 190.714844 C 55.992188 190.769531 56.046875 190.796875 56.109375 190.796875 L 56.660156 190.796875 C 57.148438 190.796875 57.390625 190.546875 57.390625 190.050781 Z M 57.390625 190.050781 "/>
<path style=" stroke:none;fill-rule:nonzero;fill:rgb(90.980392%,41.568627%,9.019608%);fill-opacity:1;" d="M 58.167969 186.226562 C 58.125 186.128906 58.070312 186.039062 58.003906 185.953125 C 57.777344 185.679688 57.523438 185.550781 57.246094 185.5625 L 50.550781 185.5625 C 50.410156 184.9375 50.167969 184.375 49.824219 183.878906 C 49.8125 183.855469 49.800781 183.839844 49.789062 183.828125 C 49.5625 183.527344 49.324219 183.265625 49.078125 183.050781 C 48.515625 182.585938 47.882812 182.359375 47.183594 182.371094 L 47.164062 182.371094 C 46.441406 182.359375 45.804688 182.585938 45.253906 183.050781 C 45.003906 183.265625 44.773438 183.527344 44.558594 183.828125 C 44.546875 183.828125 44.535156 183.839844 44.523438 183.859375 C 44.027344 184.550781 43.753906 185.367188 43.699219 186.308594 C 43.6875 186.328125 43.683594 186.355469 43.683594 186.390625 C 43.671875 186.425781 43.667969 186.46875 43.664062 186.519531 L 43.664062 186.582031 C 43.699219 187.652344 43.996094 188.570312 44.558594 189.335938 C 45.257812 190.332031 46.128906 190.816406 47.164062 190.796875 L 47.183594 190.796875 C 48.199219 190.816406 49.066406 190.332031 49.789062 189.335938 C 50.167969 188.796875 50.429688 188.199219 50.570312 187.539062 L 57.390625 187.539062 L 57.390625 187.523438 C 57.617188 187.492188 57.820312 187.371094 58.003906 187.167969 L 58.003906 187.148438 C 58.136719 186.976562 58.214844 186.777344 58.25 186.550781 L 58.25 186.535156 C 58.246094 186.476562 58.234375 186.429688 58.214844 186.390625 C 58.207031 186.335938 58.1875 186.28125 58.167969 186.226562 M 47.164062 184.347656 C 47.414062 184.378906 47.625 184.519531 47.796875 184.769531 C 48.078125 185.199219 48.222656 185.707031 48.234375 186.292969 L 48.234375 186.308594 C 48.234375 186.320312 48.234375 186.328125 48.234375 186.339844 C 48.234375 186.351562 48.234375 186.367188 48.234375 186.390625 C 48.234375 186.453125 48.234375 186.519531 48.234375 186.582031 C 48.234375 186.648438 48.234375 186.710938 48.234375 186.777344 L 48.234375 186.792969 C 48.234375 186.804688 48.234375 186.816406 48.234375 186.828125 C 48.234375 187.429688 48.089844 187.949219 47.796875 188.382812 C 47.785156 188.402344 47.777344 188.425781 47.765625 188.445312 C 47.59375 188.664062 47.390625 188.785156 47.164062 188.820312 C 46.9375 188.785156 46.738281 188.664062 46.566406 188.445312 C 46.566406 188.425781 46.5625 188.402344 46.550781 188.382812 C 46.238281 187.949219 46.078125 187.429688 46.078125 186.828125 C 46.078125 186.738281 46.085938 186.660156 46.097656 186.582031 C 46.085938 186.519531 46.078125 186.453125 46.078125 186.390625 C 46.078125 186.367188 46.078125 186.351562 46.078125 186.339844 C 46.078125 186.308594 46.078125 186.28125 46.078125 186.257812 C 46.089844 185.675781 46.246094 185.179688 46.550781 184.769531 L 46.535156 184.769531 C 46.71875 184.519531 46.929688 184.378906 47.164062 184.347656 Z M 47.164062 184.347656 "/>
<path style=" stroke:none;fill-rule:nonzero;fill:rgb(93.72549%,59.215686%,36.078431%);fill-opacity:1;" d="M 46.097656 186.582031 C 46.085938 186.660156 46.078125 186.738281 46.078125 186.828125 C 46.078125 187.429688 46.238281 187.949219 46.550781 188.382812 C 46.5625 188.402344 46.566406 188.425781 46.566406 188.445312 C 46.738281 188.664062 46.9375 188.785156 47.164062 188.820312 C 47.390625 188.785156 47.59375 188.664062 47.765625 188.445312 C 47.777344 188.425781 47.785156 188.402344 47.796875 188.382812 C 48.089844 187.949219 48.234375 187.429688 48.234375 186.828125 C 48.234375 186.816406 48.234375 186.804688 48.234375 186.792969 L 48.234375 186.777344 C 48.234375 186.710938 48.234375 186.648438 48.234375 186.582031 C 48.234375 186.519531 48.234375 186.453125 48.234375 186.390625 C 48.234375 186.367188 48.234375 186.351562 48.234375 186.339844 C 48.214844 186.878906 48.066406 187.34375 47.796875 187.734375 C 47.785156 187.753906 47.777344 187.777344 47.765625 187.796875 C 47.59375 188.015625 47.390625 188.140625 47.164062 188.171875 C 46.9375 188.140625 46.738281 188.015625 46.566406 187.796875 C 46.566406 187.777344 46.5625 187.753906 46.550781 187.734375 C 46.246094 187.324219 46.089844 186.832031 46.078125 186.257812 C 46.078125 186.28125 46.078125 186.308594 46.078125 186.339844 C 46.078125 186.351562 46.078125 186.367188 46.078125 186.390625 C 46.078125 186.453125 46.085938 186.519531 46.097656 186.582031 M 58.003906 185.304688 C 57.777344 185.03125 57.523438 184.902344 57.246094 184.914062 L 50.550781 184.914062 C 50.410156 184.289062 50.167969 183.726562 49.824219 183.230469 C 49.8125 183.207031 49.800781 183.191406 49.789062 183.179688 C 49.5625 182.878906 49.324219 182.617188 49.078125 182.402344 C 48.515625 181.9375 47.882812 181.710938 47.183594 181.722656 L 47.164062 181.722656 C 46.441406 181.710938 45.804688 181.9375 45.253906 182.402344 C 45.003906 182.617188 44.773438 182.878906 44.558594 183.179688 C 44.546875 183.179688 44.535156 183.191406 44.523438 183.210938 C 44.015625 183.925781 43.734375 184.769531 43.683594 185.742188 C 43.671875 185.792969 43.664062 185.855469 43.664062 185.917969 L 43.664062 186.519531 C 43.667969 186.46875 43.671875 186.425781 43.683594 186.390625 C 43.683594 186.355469 43.6875 186.328125 43.699219 186.308594 C 43.753906 185.367188 44.027344 184.550781 44.523438 183.859375 C 44.535156 183.839844 44.546875 183.828125 44.558594 183.828125 C 44.773438 183.527344 45.003906 183.265625 45.253906 183.050781 C 45.804688 182.585938 46.441406 182.359375 47.164062 182.371094 L 47.183594 182.371094 C 47.882812 182.359375 48.515625 182.585938 49.078125 183.050781 C 49.324219 183.265625 49.5625 183.527344 49.789062 183.828125 C 49.800781 183.839844 49.8125 183.855469 49.824219 183.878906 C 50.167969 184.375 50.410156 184.9375 50.550781 185.5625 L 57.246094 185.5625 C 57.523438 185.550781 57.777344 185.679688 58.003906 185.953125 C 58.070312 186.039062 58.125 186.128906 58.167969 186.226562 C 58.1875 186.28125 58.207031 186.335938 58.214844 186.390625 C 58.238281 186.429688 58.246094 186.476562 58.25 186.535156 L 58.25 185.902344 C 58.25 185.835938 58.238281 185.785156 58.214844 185.742188 C 58.171875 185.589844 58.101562 185.445312 58.003906 185.304688 Z M 58.003906 185.304688 "/>
<path style=" stroke:none;fill-rule:nonzero;fill:url(#linear2);" d="M 204.4375 189.992188 L 204.4375 187.621094 L 200.292969 187.621094 L 200.292969 189.992188 C 200.292969 190.460938 200.523438 190.695312 200.980469 190.695312 L 201.5 190.695312 C 201.5625 190.695312 201.613281 190.671875 201.652344 190.617188 C 201.703125 190.578125 201.730469 190.527344 201.730469 190.464844 L 201.730469 190.097656 L 203 190.097656 L 203 190.464844 C 203 190.527344 203.023438 190.578125 203.074219 190.617188 C 203.117188 190.671875 203.167969 190.695312 203.230469 190.695312 L 203.75 190.695312 C 204.207031 190.695312 204.4375 190.460938 204.4375 189.992188 Z M 204.4375 189.992188 "/>
<path style=" stroke:none;fill-rule:nonzero;fill:rgb(11.764706%,65.490196%,88.235294%);fill-opacity:1;" d="M 205.214844 186.535156 C 205.207031 186.484375 205.191406 186.433594 205.171875 186.382812 C 205.128906 186.292969 205.078125 186.207031 205.015625 186.125 C 204.804688 185.871094 204.5625 185.746094 204.300781 185.757812 L 197.984375 185.757812 C 197.851562 185.164062 197.621094 184.636719 197.296875 184.167969 C 197.285156 184.148438 197.277344 184.132812 197.265625 184.121094 C 197.050781 183.835938 196.828125 183.589844 196.59375 183.386719 C 196.0625 182.949219 195.464844 182.734375 194.804688 182.746094 L 194.789062 182.746094 C 194.105469 182.734375 193.503906 182.949219 192.984375 183.386719 C 192.75 183.589844 192.53125 183.835938 192.328125 184.121094 C 192.316406 184.121094 192.308594 184.132812 192.296875 184.152344 C 191.828125 184.804688 191.566406 185.574219 191.515625 186.460938 C 191.507812 186.480469 191.5 186.507812 191.5 186.535156 C 191.492188 186.574219 191.488281 186.613281 191.484375 186.660156 L 191.484375 186.71875 C 191.515625 187.730469 191.796875 188.597656 192.328125 189.320312 C 192.988281 190.257812 193.808594 190.714844 194.789062 190.695312 L 194.804688 190.695312 C 195.761719 190.714844 196.582031 190.257812 197.265625 189.320312 C 197.621094 188.808594 197.867188 188.242188 198 187.621094 L 204.4375 187.621094 L 204.4375 187.605469 C 204.652344 187.578125 204.84375 187.464844 205.015625 187.269531 L 205.015625 187.253906 C 205.140625 187.09375 205.214844 186.902344 205.246094 186.691406 L 205.246094 186.675781 C 205.246094 186.621094 205.234375 186.574219 205.214844 186.535156 M 194.191406 185.007812 C 194.367188 184.773438 194.566406 184.640625 194.789062 184.609375 C 195.023438 184.640625 195.222656 184.773438 195.386719 185.007812 C 195.648438 185.414062 195.789062 185.894531 195.796875 186.445312 L 195.796875 186.460938 C 195.796875 186.46875 195.796875 186.480469 195.796875 186.492188 C 195.796875 186.5 195.796875 186.515625 195.796875 186.535156 C 195.796875 186.597656 195.796875 186.660156 195.796875 186.71875 C 195.796875 186.78125 195.796875 186.84375 195.796875 186.902344 L 195.796875 186.917969 C 195.796875 186.929688 195.796875 186.9375 195.796875 186.949219 C 195.796875 187.519531 195.660156 188.007812 195.386719 188.417969 C 195.375 188.4375 195.363281 188.457031 195.355469 188.480469 C 195.191406 188.683594 195.003906 188.800781 194.789062 188.832031 C 194.574219 188.800781 194.386719 188.683594 194.222656 188.480469 C 194.222656 188.457031 194.21875 188.4375 194.207031 188.417969 C 193.914062 188.007812 193.765625 187.519531 193.765625 186.949219 C 193.765625 186.867188 193.769531 186.792969 193.78125 186.71875 C 193.769531 186.660156 193.765625 186.597656 193.765625 186.535156 C 193.765625 186.515625 193.765625 186.5 193.765625 186.492188 C 193.765625 186.460938 193.765625 186.433594 193.765625 186.414062 C 193.773438 185.863281 193.921875 185.394531 194.207031 185.007812 Z M 194.191406 185.007812 "/>
<path style=" stroke:none;fill-rule:nonzero;fill:rgb(41.176471%,77.254902%,92.156863%);fill-opacity:1;" d="M 193.765625 186.414062 C 193.765625 186.433594 193.765625 186.460938 193.765625 186.492188 C 193.765625 186.5 193.765625 186.515625 193.765625 186.535156 C 193.765625 186.597656 193.769531 186.660156 193.78125 186.71875 C 193.769531 186.792969 193.765625 186.867188 193.765625 186.949219 C 193.765625 187.519531 193.914062 188.007812 194.207031 188.417969 C 194.21875 188.4375 194.222656 188.457031 194.222656 188.480469 C 194.386719 188.683594 194.574219 188.800781 194.789062 188.832031 C 195.003906 188.800781 195.191406 188.683594 195.355469 188.480469 C 195.363281 188.457031 195.375 188.4375 195.386719 188.417969 C 195.660156 188.007812 195.796875 187.519531 195.796875 186.949219 C 195.796875 186.9375 195.796875 186.929688 195.796875 186.917969 L 195.796875 186.902344 C 195.796875 186.84375 195.796875 186.78125 195.796875 186.71875 C 195.796875 186.660156 195.796875 186.597656 195.796875 186.535156 C 195.796875 186.515625 195.796875 186.5 195.796875 186.492188 C 195.777344 187 195.640625 187.4375 195.386719 187.804688 C 195.375 187.828125 195.363281 187.847656 195.355469 187.867188 C 195.191406 188.070312 195.003906 188.1875 194.789062 188.21875 C 194.574219 188.1875 194.386719 188.070312 194.222656 187.867188 C 194.222656 187.847656 194.21875 187.828125 194.207031 187.804688 C 193.921875 187.417969 193.773438 186.953125 193.765625 186.414062 M 205.015625 185.511719 C 204.804688 185.257812 204.5625 185.136719 204.300781 185.144531 L 197.984375 185.144531 C 197.851562 184.554688 197.621094 184.023438 197.296875 183.554688 C 197.285156 183.535156 197.277344 183.519531 197.265625 183.507812 C 197.050781 183.222656 196.828125 182.980469 196.59375 182.777344 C 196.0625 182.335938 195.464844 182.125 194.804688 182.132812 L 194.789062 182.132812 C 194.105469 182.125 193.503906 182.335938 192.984375 182.777344 C 192.75 182.980469 192.53125 183.222656 192.328125 183.507812 C 192.316406 183.507812 192.308594 183.519531 192.296875 183.539062 C 191.816406 184.210938 191.550781 185.007812 191.5 185.925781 C 191.492188 185.976562 191.484375 186.03125 191.484375 186.09375 L 191.484375 186.660156 C 191.488281 186.613281 191.492188 186.574219 191.5 186.535156 C 191.5 186.507812 191.507812 186.480469 191.515625 186.460938 C 191.566406 185.574219 191.828125 184.804688 192.296875 184.152344 C 192.308594 184.132812 192.316406 184.121094 192.328125 184.121094 C 192.53125 183.835938 192.75 183.589844 192.984375 183.386719 C 193.503906 182.949219 194.105469 182.734375 194.789062 182.746094 L 194.804688 182.746094 C 195.464844 182.734375 196.0625 182.949219 196.59375 183.386719 C 196.828125 183.589844 197.050781 183.835938 197.265625 184.121094 C 197.277344 184.132812 197.285156 184.148438 197.296875 184.167969 C 197.621094 184.636719 197.851562 185.164062 197.984375 185.757812 L 204.300781 185.757812 C 204.5625 185.746094 204.804688 185.871094 205.015625 186.125 C 205.078125 186.207031 205.128906 186.292969 205.171875 186.382812 C 205.191406 186.433594 205.207031 186.484375 205.214844 186.535156 C 205.234375 186.574219 205.246094 186.621094 205.246094 186.675781 L 205.246094 186.078125 C 205.246094 186.015625 205.238281 185.964844 205.214844 185.925781 C 205.175781 185.78125 205.109375 185.644531 205.015625 185.511719 Z M 205.015625 185.511719 "/>
<path style=" stroke:none;fill-rule:nonzero;fill:rgb(78.823529%,59.607843%,41.176471%);fill-opacity:1;" d="M 217.921875 176.554688 L 208.839844 176.554688 L 208.839844 196.46875 L 217.921875 196.46875 L 217.921875 176.554688 M 209.097656 148.820312 L 208.839844 148.820312 L 208.839844 153.808594 L 217.921875 153.808594 L 217.921875 148.820312 L 217.660156 148.820312 C 217.4375 148.226562 217.078125 147.679688 216.582031 147.183594 C 215.710938 146.289062 214.644531 145.84375 213.378906 145.84375 C 212.113281 145.84375 211.035156 146.289062 210.140625 147.183594 C 209.667969 147.679688 209.320312 148.226562 209.097656 148.820312 Z M 209.097656 148.820312 "/>
<path style=" stroke:none;fill-rule:nonzero;fill:rgb(74.901961%,56.078431%,37.647059%);fill-opacity:1;" d="M 217.921875 153.808594 L 208.839844 153.808594 L 208.839844 176.554688 L 217.921875 176.554688 Z M 217.921875 153.808594 "/>
<path style=" stroke:none;fill-rule:nonzero;fill:rgb(82.745098%,67.843137%,53.72549%);fill-opacity:1;" d="M 216.582031 145.695312 C 215.710938 144.800781 214.644531 144.355469 213.378906 144.355469 C 212.113281 144.355469 211.035156 144.800781 210.140625 145.695312 C 209.296875 146.5625 208.863281 147.605469 208.839844 148.820312 L 209.097656 148.820312 C 209.320312 148.226562 209.667969 147.679688 210.140625 147.183594 C 211.035156 146.289062 212.113281 145.84375 213.378906 145.84375 C 214.644531 145.84375 215.710938 146.289062 216.582031 147.183594 C 217.078125 147.679688 217.4375 148.226562 217.660156 148.820312 L 217.921875 148.820312 C 217.894531 147.605469 217.449219 146.5625 216.582031 145.695312 Z M 216.582031 145.695312 "/>
<path style=" stroke:none;fill-rule:nonzero;fill:rgb(73.333333%,51.764706%,30.196078%);fill-opacity:1;" d="M 223.175781 147.445312 L 223.175781 148.933594 C 223.25 146.625 224.007812 145.609375 225.449219 145.878906 C 226.191406 145.683594 227.148438 146.363281 228.3125 147.929688 L 238.8125 160.175781 C 238.859375 160.25 238.910156 160.324219 238.960938 160.398438 C 239.628906 161.488281 239.976562 162.570312 240 163.636719 C 240 163.539062 240 163.4375 240 163.339844 C 240 163.117188 240 162.890625 240 162.667969 C 240.078125 161.429688 239.730469 160.175781 238.960938 158.910156 C 238.910156 158.835938 238.859375 158.761719 238.8125 158.6875 L 228.3125 146.4375 C 227.148438 144.875 226.191406 144.191406 225.449219 144.390625 C 224.007812 144.117188 223.25 145.136719 223.175781 147.445312 M 196.785156 151.6875 C 196.214844 152.183594 195.976562 152.914062 196.078125 153.882812 L 196.078125 154.070312 C 196.078125 154.167969 196.078125 154.269531 196.078125 154.367188 L 196.078125 154.589844 C 196.152344 153.996094 196.386719 153.523438 196.785156 153.175781 C 197.183594 152.679688 197.851562 152.394531 198.792969 152.320312 C 198.820312 152.320312 198.84375 152.320312 198.871094 152.320312 L 223.175781 152.320312 L 223.175781 150.832031 L 198.871094 150.832031 C 198.84375 150.832031 198.820312 150.832031 198.792969 150.832031 C 197.851562 150.90625 197.183594 151.191406 196.785156 151.6875 Z M 196.785156 151.6875 "/>
<path style=" stroke:none;fill-rule:nonzero;fill:rgb(68.235294%,46.27451%,25.098039%);fill-opacity:1;" d="M 196.078125 154.589844 L 196.078125 154.738281 C 196.078125 154.8125 196.078125 154.902344 196.078125 155 L 196.078125 155.558594 C 196.078125 155.65625 196.078125 155.757812 196.078125 155.855469 L 196.078125 171.566406 C 196.078125 171.6875 196.078125 171.789062 196.078125 171.863281 L 196.078125 172.085938 C 196.054688 172.359375 196.054688 172.621094 196.078125 172.867188 C 196.152344 173.4375 196.398438 173.898438 196.820312 174.246094 C 197.195312 174.742188 197.863281 175.015625 198.832031 175.0625 L 223.175781 175.0625 L 223.175781 178.453125 C 223.175781 178.476562 223.175781 178.5 223.175781 178.527344 C 223.25 180.832031 224.007812 181.839844 225.449219 181.542969 C 226.191406 181.714844 227.148438 181.042969 228.3125 179.53125 L 238.8125 167.285156 C 238.859375 167.210938 238.898438 167.136719 238.921875 167.0625 C 239.640625 165.96875 240 164.863281 240 163.75 L 240 163.636719 C 239.976562 162.570312 239.628906 161.488281 238.960938 160.398438 C 238.910156 160.324219 238.859375 160.25 238.8125 160.175781 L 228.3125 147.929688 C 227.148438 146.363281 226.191406 145.683594 225.449219 145.878906 C 224.007812 145.609375 223.25 146.625 223.175781 148.933594 L 223.175781 152.320312 L 198.871094 152.320312 C 198.84375 152.320312 198.820312 152.320312 198.792969 152.320312 C 197.851562 152.394531 197.183594 152.679688 196.785156 153.175781 C 196.386719 153.523438 196.152344 153.996094 196.078125 154.589844 Z M 196.078125 154.589844 "/>
<path style=" stroke:none;fill-rule:nonzero;fill:rgb(0%,65.490196%,39.607843%);fill-opacity:1;" d="M 127.753906 0.242188 C 93.386719 0.242188 61.808594 13.339844 37.453125 37.695312 C 13.097656 62.050781 0 93.628906 0 128 C 0 162.371094 13.097656 193.945312 37.453125 218.300781 C 57.90625 238.753906 83.46875 251.269531 112.398438 254.992188 C 123.757812 256.453125 141.171875 255.714844 153.585938 253.238281 C 198.277344 244.335938 236.460938 209.71875 249.839844 165.976562 C 263.878906 120.082031 251.835938 71.472656 218.058594 37.695312 C 193.703125 13.339844 162.125 0.242188 127.753906 0.242188 Z M 126.59375 10.261719 C 145.082031 10.09375 163.558594 14.28125 180.398438 22.71875 C 203.476562 34.28125 221.472656 52.277344 233.035156 75.359375 C 249.65625 108.53125 249.65625 147.464844 233.035156 180.636719 C 227.238281 192.214844 221.460938 200.351562 212.257812 209.910156 C 192.785156 230.140625 167.003906 242.472656 138.328125 245.273438 C 116.941406 247.363281 94.871094 243.175781 75.117188 233.277344 C 63.539062 227.476562 55.398438 221.703125 45.839844 212.5 C 8.96875 177.003906 -0.527344 121.269531 22.476562 75.359375 C 36.300781 47.761719 60.054688 26.882812 89.140625 16.757812 C 101.285156 12.53125 113.941406 10.378906 126.59375 10.261719 Z M 126.59375 10.261719 "/>
</g>
</svg>
